<svg width="19" height="19" viewBox="0 0 19 19" fill="none" xmlns="http://www.w3.org/2000/svg">
<path d="M17.4167 2.53333H17.1V0.95C17.1 0.426233 16.6738 0 16.15 0H15.5167C14.9929 0 14.5667 0.426233 14.5667 0.95V2.53333H4.43333V0.95C4.43333 0.426233 4.0071 0 3.48333 0H2.85C2.32623 0 1.9 0.426233 1.9 0.95V2.53333H1.58333C0.710283 2.53333 0 3.24362 0 4.11667V17.4167C0 18.2897 0.710283 19 1.58333 19H17.4167C18.2897 19 19 18.2897 19 17.4167V4.11667C19 3.24362 18.2897 2.53333 17.4167 2.53333ZM15.2 2.85V0.95C15.2 0.7752 15.3419 0.633333 15.5167 0.633333H16.15C16.3248 0.633333 16.4667 0.7752 16.4667 0.95V2.85V4.11667C16.4667 4.29147 16.3248 4.43333 16.15 4.43333H15.5167C15.3419 4.43333 15.2 4.29147 15.2 4.11667V2.85ZM2.53333 2.85V0.95C2.53333 0.7752 2.6752 0.633333 2.85 0.633333H3.48333C3.65813 0.633333 3.8 0.7752 3.8 0.95V2.85V4.11667C3.8 4.29147 3.65813 4.43333 3.48333 4.43333H2.85C2.6752 4.43333 2.53333 4.29147 2.53333 4.11667V2.85ZM18.3667 17.4167C18.3667 17.9404 17.9404 18.3667 17.4167 18.3667H1.58333C1.05957 18.3667 0.633333 17.9404 0.633333 17.4167V8.23333H18.3667V17.4167ZM18.3667 7.6H0.633333V4.11667C0.633333 3.5929 1.05957 3.16667 1.58333 3.16667H1.9V4.11667C1.9 4.64043 2.32623 5.06667 2.85 5.06667H3.48333C4.0071 5.06667 4.43333 4.64043 4.43333 4.11667V3.16667H14.5667V4.11667C14.5667 4.64043 14.9929 5.06667 15.5167 5.06667H16.15C16.6738 5.06667 17.1 4.64043 17.1 4.11667V3.16667H17.4167C17.9404 3.16667 18.3667 3.5929 18.3667 4.11667V7.6Z" fill="white"/>
<path d="M12.9833 4.1167H6.01662C5.8415 4.1167 5.69995 4.25825 5.69995 4.43337V6.33337C5.69995 6.50848 5.8415 6.65003 6.01662 6.65003H12.9833C13.1584 6.65003 13.2999 6.50848 13.2999 6.33337V4.43337C13.2999 4.25825 13.1584 4.1167 12.9833 4.1167ZM12.6666 6.0167H6.33328V4.75003H12.6666V6.0167Z" fill="white"/>
<path d="M4.11657 9.5H2.21657C2.04145 9.5 1.8999 9.64155 1.8999 9.81667V11.4C1.8999 11.5751 2.04145 11.7167 2.21657 11.7167H4.11657C4.29169 11.7167 4.43324 11.5751 4.43324 11.4V9.81667C4.43324 9.64155 4.29169 9.5 4.11657 9.5ZM3.7999 11.0833H2.53324V10.1333H3.7999V11.0833Z" fill="white"/>
<path d="M8.23327 9.5H6.33327C6.15815 9.5 6.0166 9.64155 6.0166 9.81667V11.4C6.0166 11.5751 6.15815 11.7167 6.33327 11.7167H8.23327C8.40838 11.7167 8.54993 11.5751 8.54993 11.4V9.81667C8.54993 9.64155 8.40838 9.5 8.23327 9.5ZM7.9166 11.0833H6.64993V10.1333H7.9166V11.0833Z" fill="white"/>
<path d="M12.6666 9.18335H10.7666C10.5915 9.18335 10.45 9.3249 10.45 9.50002V11.0834C10.45 11.2585 10.5915 11.4 10.7666 11.4H12.6666C12.8417 11.4 12.9833 11.2585 12.9833 11.0834V9.50002C12.9833 9.3249 12.8417 9.18335 12.6666 9.18335ZM12.35 10.7667H11.0833V9.81668H12.35V10.7667Z" fill="white"/>
<path d="M16.7833 9.18335H14.8833C14.7082 9.18335 14.5667 9.3249 14.5667 9.50002V11.0834C14.5667 11.2585 14.7082 11.4 14.8833 11.4H16.7833C16.9584 11.4 17.1 11.2585 17.1 11.0834V9.50002C17.1 9.3249 16.9584 9.18335 16.7833 9.18335ZM16.4667 10.7667H15.2V9.81668H16.4667V10.7667Z" fill="white"/>
<path d="M4.11657 12.6666H2.21657C2.04145 12.6666 1.8999 12.8082 1.8999 12.9833V14.5666C1.8999 14.7417 2.04145 14.8833 2.21657 14.8833H4.11657C4.29169 14.8833 4.43324 14.7417 4.43324 14.5666V12.9833C4.43324 12.8082 4.29169 12.6666 4.11657 12.6666ZM3.7999 14.25H2.53324V13.3H3.7999V14.25Z" fill="white"/>
<path d="M8.23327 12.35H6.33327C6.15815 12.35 6.0166 12.4915 6.0166 12.6666V14.25C6.0166 14.4251 6.15815 14.5666 6.33327 14.5666H8.23327C8.40838 14.5666 8.54993 14.4251 8.54993 14.25V12.6666C8.54993 12.4915 8.40838 12.35 8.23327 12.35ZM7.9166 13.9333H6.64993V12.9833H7.9166V13.9333Z" fill="white"/>
<path d="M12.6666 12.35H10.7666C10.5915 12.35 10.45 12.4915 10.45 12.6666V14.25C10.45 14.4251 10.5915 14.5666 10.7666 14.5666H12.6666C12.8417 14.5666 12.9833 14.4251 12.9833 14.25V12.6666C12.9833 12.4915 12.8417 12.35 12.6666 12.35ZM12.35 13.9333H11.0833V12.9833H12.35V13.9333Z" fill="white"/>
<path d="M16.7833 12.35H14.8833C14.7082 12.35 14.5667 12.4915 14.5667 12.6666V14.25C14.5667 14.4251 14.7082 14.5666 14.8833 14.5666H16.7833C16.9584 14.5666 17.1 14.4251 17.1 14.25V12.6666C17.1 12.4915 16.9584 12.35 16.7833 12.35ZM16.4667 13.9333H15.2V12.9833H16.4667V13.9333Z" fill="white"/>
<path d="M4.11657 15.8334H2.21657C2.04145 15.8334 1.8999 15.9749 1.8999 16.15V17.7334C1.8999 17.9085 2.04145 18.05 2.21657 18.05H4.11657C4.29169 18.05 4.43324 17.9085 4.43324 17.7334V16.15C4.43324 15.9749 4.29169 15.8334 4.11657 15.8334ZM3.7999 17.4167H2.53324V16.4667H3.7999V17.4167Z" fill="white"/>
<path d="M8.23327 15.8334H6.33327C6.15815 15.8334 6.0166 15.9749 6.0166 16.15V17.7334C6.0166 17.9085 6.15815 18.05 6.33327 18.05H8.23327C8.40838 18.05 8.54993 17.9085 8.54993 17.7334V16.15C8.54993 15.9749 8.40838 15.8334 8.23327 15.8334ZM7.9166 17.4167H6.64993V16.4667H7.9166V17.4167Z" fill="white"/>
<path d="M12.7401 15.6307L11.3787 17.2644L10.6738 16.5595L10.2261 17.0072L11.1761 17.9572C11.2353 18.0171 11.316 18.05 11.4 18.05C11.4047 18.05 11.4095 18.05 11.4142 18.0497C11.5032 18.0456 11.5862 18.0044 11.6435 17.9363L13.2268 16.0363L12.7401 15.6307Z" fill="white"/>
<path d="M16.5401 15.6307L15.1788 17.2644L14.4739 16.5595L14.0261 17.0072L14.9761 17.9572C15.0353 18.0171 15.1161 18.05 15.2 18.05C15.2048 18.05 15.2095 18.05 15.2143 18.0497C15.3032 18.0456 15.3862 18.0044 15.4435 17.9363L17.0269 16.0363L16.5401 15.6307Z" fill="white"/>
</svg>
