<svg width="43" height="43" viewBox="0 0 43 43" fill="none" xmlns="http://www.w3.org/2000/svg">
<g clip-path="url(#clip0)">
<path d="M21.25 0.416656C9.53295 0.416656 0 9.53294 0 21.25C0 32.967 9.53295 42.5 21.25 42.5C32.967 42.5 42.5 32.967 42.5 21.25C42.5 9.53294 32.967 0.416656 21.25 0.416656ZM21.25 42.5C10.5091 42.5 0 31.9909 0 21.25C0 10.5091 10.5091 0.416656 21.25 0.416656C31.9909 0.416656 42.5 10.5091 42.5 21.25C42.5 31.9909 31.9909 42.5 21.25 42.5Z" fill="#37245C"/>
<path d="M29.2834 26.2648L27.5743 25.2177L26.055 24.2871C25.7617 24.1078 25.3677 24.1666 25.1512 24.4219L24.2111 25.5325C24.0091 25.7735 23.6459 25.8428 23.3563 25.6954C22.7183 25.3694 21.964 25.0623 20.2995 23.5309C18.6351 21.9994 18.2989 21.3082 17.944 20.722C17.7837 20.4559 17.859 20.1221 18.1213 19.9365L19.3299 19.0726C19.6077 18.8737 19.6717 18.5116 19.4766 18.2422L18.495 16.889L17.3244 15.2755C17.1252 15.0008 16.7263 14.9184 16.4183 15.0881L15.0683 15.8324C14.7034 16.0299 14.4353 16.3489 14.3193 16.7231C13.9501 17.96 13.8757 20.6885 18.6343 25.0613C23.3929 29.4341 26.3619 29.3655 27.7079 29.0262C28.1153 28.9197 28.4624 28.6732 28.6773 28.338L29.4872 27.0974C29.672 26.8143 29.5823 26.4479 29.2834 26.2648Z" fill="#877F7F"/>
<path d="M22.9377 17.1982C25.4321 17.2008 27.4535 19.0583 27.4563 21.3505C27.4563 21.4854 27.5753 21.5948 27.7221 21.5948C27.8689 21.5948 27.9879 21.4854 27.9879 21.3505C27.9848 18.7887 25.7256 16.7126 22.9377 16.7097C22.7909 16.7097 22.6719 16.8191 22.6719 16.954C22.6718 17.0889 22.7908 17.1982 22.9377 17.1982Z" fill="#877F7F"/>
<path d="M22.9377 18.6637C24.5517 18.6654 25.8596 19.8673 25.8615 21.3504C25.8615 21.4853 25.9805 21.5947 26.1273 21.5947C26.2741 21.5947 26.3931 21.4853 26.3931 21.3504C26.3909 19.5976 24.8452 18.1772 22.9377 18.1752C22.7909 18.1752 22.6719 18.2845 22.6719 18.4194C22.6719 18.5543 22.7909 18.6637 22.9377 18.6637Z" fill="#877F7F"/>
<path d="M22.9377 20.1292C23.6713 20.13 24.2658 20.6763 24.2667 21.3505C24.2667 21.4854 24.3857 21.5947 24.5325 21.5947C24.6793 21.5947 24.7983 21.4854 24.7983 21.3505C24.7971 20.4066 23.9648 19.6418 22.9377 19.6407C22.7909 19.6407 22.6719 19.7501 22.6719 19.885C22.6718 20.0199 22.7908 20.1292 22.9377 20.1292Z" fill="#877F7F"/>
</g>
<defs>
<clipPath id="clip0">
<rect width="42.5" height="42.5" fill="white"/>
</clipPath>
</defs>
</svg>
