<svg width="23" height="23" viewBox="0 0 23 23" fill="none" xmlns="http://www.w3.org/2000/svg">
<path d="M18.6875 7.1875H18.2857L18.3209 7.11706L18.2275 5.99509C18.106 4.53639 16.9284 3.59375 15.2274 3.59375H13.5229C11.822 3.59375 10.6443 4.53639 10.5229 5.99509L10.4294 7.11706L10.4643 7.1875H10.0625C9.66539 7.1875 9.34375 7.50914 9.34375 7.90625V8.625C9.34375 9.02211 9.66539 9.34375 10.0625 9.34375H10.5117L10.4219 8.648V8.26562C10.4219 7.89906 10.4747 7.53717 10.5742 7.1875C10.5843 7.15156 10.5926 7.11491 10.6037 7.07933C11.1255 5.42441 12.641 4.3125 14.375 4.3125C16.109 4.3125 17.6245 5.42441 18.1463 7.07933C18.1574 7.11527 18.166 7.15192 18.1761 7.18822C18.2753 7.53789 18.3281 7.89942 18.3281 8.26562V8.648L18.2383 9.34375H18.6875C19.0846 9.34375 19.4062 9.02211 19.4062 8.625V7.90625C19.4062 7.50914 19.0846 7.1875 18.6875 7.1875Z" fill="white"/>
<path d="M14.375 17.6094C13.4711 17.6094 12.8843 17.8789 12.5774 18.427C12.8217 18.8366 13.2081 19.1522 13.6781 19.3053C13.6684 19.338 13.6562 19.3707 13.6562 19.4062V20.8438C13.6562 21.0414 13.8179 21.2031 14.0156 21.2031C14.0156 21.5995 13.6932 21.9219 13.2968 21.9219H8.98433C8.58794 21.9219 8.26558 21.5995 8.26558 21.2031V6.46875C8.26558 5.47795 7.4595 4.67188 6.46871 4.67188C5.47791 4.67188 4.67183 5.47795 4.67183 6.46875V8.625C4.47346 8.625 4.31246 8.786 4.31246 8.98438V9.70312H4.23447C3.87294 9.70312 3.561 9.96763 3.50818 10.3266L3.24224 12.4746C3.21205 12.6784 3.27243 12.8854 3.40791 13.0424C3.54447 13.2006 3.74249 13.2915 3.95344 13.2954V14.0156H4.67219V13.2969H5.39094V14.0156H6.10969V13.2954C6.32029 13.2915 6.51866 13.2006 6.65522 13.0424C6.79071 12.8854 6.85108 12.6784 6.82197 12.4833L6.55388 10.3184C6.50141 9.96763 6.18947 9.70312 5.82794 9.70312H5.74996V8.98438C5.74996 8.786 5.58896 8.625 5.39058 8.625V6.46875C5.39058 5.87434 5.8743 5.39062 6.46871 5.39062C7.06311 5.39062 7.54683 5.87434 7.54683 6.46875V21.2031C7.54683 21.9959 8.19155 22.6406 8.98433 22.6406H13.2968C14.0896 22.6406 14.7343 21.9959 14.7343 21.2031C14.932 21.2031 15.0937 21.0414 15.0937 20.8438V19.4062C15.0937 19.3703 15.0829 19.3376 15.0732 19.3045C15.5426 19.1511 15.9285 18.8363 16.1726 18.427C15.8656 17.8789 15.2788 17.6094 14.375 17.6094Z" fill="white"/>
<path d="M15.2275 2.875C16.4519 2.875 17.4714 3.30769 18.1345 4.03758C17.9803 2.68273 17.7754 1.57406 17.6762 1.07812H16.8907V2.15625H16.1719V0.359375H15.4532V2.15625H14.7344V0.359375H14.0157V2.15625H13.2969V0.359375H12.5782V2.15625H11.8594V1.07812H11.0738C10.9746 1.57442 10.7698 2.68273 10.616 4.03758C11.279 3.30769 12.2986 2.875 13.5226 2.875H15.2275Z" fill="white"/>
<path d="M16.8888 6.23086C16.6171 6.51656 16.1719 7.15337 16.1719 8.26564V11.1406C16.1719 11.735 15.6882 12.2188 15.0938 12.2188H13.6562C13.0618 12.2188 12.5781 11.735 12.5781 11.1406V8.26564C12.5781 7.15302 12.1318 6.51512 11.8615 6.2305C11.6118 6.53992 11.4148 6.89786 11.2894 7.29569C11.1906 7.60834 11.1406 7.93466 11.1406 8.26564V8.60202L12.3021 17.6015C12.7722 17.1296 13.4661 16.8906 14.375 16.8906C15.2842 16.8906 15.9778 17.1296 16.4479 17.6015L17.6094 8.60202V8.26564C17.6094 7.93466 17.5594 7.60834 17.4606 7.29569C17.3352 6.89786 17.1382 6.53992 16.8888 6.23086Z" fill="white"/>
<path d="M13.6561 11.5H15.0936C15.2916 11.5 15.453 11.3386 15.453 11.1406V8.26562C15.453 6.91761 16.0111 6.11117 16.3784 5.72628C15.8221 5.28712 15.1242 5.03125 14.3749 5.03125C13.6256 5.03125 12.9277 5.28712 12.3713 5.72628C12.7386 6.11117 13.2967 6.91761 13.2967 8.26562V11.1406C13.2967 11.3386 13.4581 11.5 13.6561 11.5ZM14.0155 6.46875H14.7342V8.625H14.0155V6.46875ZM14.0155 9.34375H14.7342V10.0625H14.0155V9.34375Z" fill="white"/>
</svg>
