<svg width="155" height="145" viewBox="0 0 155 145" fill="none" xmlns="http://www.w3.org/2000/svg">
<rect width="155" height="145" rx="5" fill="#37245C"/>
<path d="M90.4317 39.368V36.3607C90.4317 35.6092 89.8227 35 89.071 35C88.3194 35 87.7103 35.6092 87.7103 36.3607V39.3542H85.8961V36.3607C85.8961 35.6092 85.287 35 84.5354 35C83.7837 35 83.1747 35.6092 83.1747 36.3607V39.3542H81.3604V36.3607C81.3604 35.6092 80.7514 35 79.9998 35C79.2481 35 78.6391 35.6092 78.6391 36.3607V39.3542H76.8248V36.3607C76.8248 35.6092 76.2158 35 75.4641 35C74.7125 35 74.1034 35.6092 74.1034 36.3607V39.3542H72.2892V36.3607C72.2892 35.6092 71.6801 35 70.9285 35C70.1768 35 69.5678 35.6092 69.5678 36.3607V39.368C68.1445 39.5053 67.0278 40.7075 67.0278 42.1663V63.7639C67.0278 66.0459 67.6969 68.2557 68.9627 70.1545L69.9453 71.6284L71.2329 107.684C71.3287 110.359 73.2228 112.532 75.7363 113.067V114.736C75.7363 117.087 77.6488 119 79.9998 119C82.3507 119 84.2633 117.087 84.2633 114.736V113.067C86.7769 112.532 88.671 110.359 88.7664 107.683L90.0542 71.6284L91.0368 70.1545C92.3028 68.2558 92.9717 66.0461 92.9717 63.7639V42.1663C92.9717 40.7075 91.855 39.5053 90.4317 39.368ZM74.1034 42.0756V43.6177C74.1034 44.3692 74.7125 44.9784 75.4641 44.9784C76.2158 44.9784 76.8248 44.3692 76.8248 43.6177V42.0756H78.6391V43.6177C78.6391 44.3692 79.2481 44.9784 79.9998 44.9784C80.7514 44.9784 81.3604 44.3692 81.3604 43.6177V42.0756H83.1747V43.6177C83.1747 44.3692 83.7837 44.9784 84.5354 44.9784C85.287 44.9784 85.8961 44.3692 85.8961 43.6177V42.0756H87.7103V43.6177C87.7103 44.3692 88.3194 44.9784 89.071 44.9784C89.5759 44.9784 90.0155 44.7028 90.2503 44.2946V48.0626H69.7492V44.2946C69.984 44.7028 70.4236 44.9784 70.9285 44.9784C71.6801 44.9784 72.2892 44.3692 72.2892 43.6177V42.0756H74.1034ZM79.9998 116.279C79.1494 116.279 78.4576 115.587 78.4576 114.736V113.194H81.5419V114.736C81.5419 115.587 80.8501 116.279 79.9998 116.279ZM86.0468 107.586C85.9892 109.205 84.6751 110.473 83.0553 110.473H76.9442C75.3244 110.473 74.0104 109.205 73.9525 107.586L72.7014 72.5551H87.298L86.0468 107.586ZM88.7724 68.645L87.9799 69.8337H72.0194L71.2269 68.645C70.2601 67.1947 69.749 65.5071 69.749 63.7641V50.784H90.2501V63.7639C90.2503 65.5069 89.7394 67.1947 88.7724 68.645Z" fill="white"/>
<path d="M79.9998 55.3196C77.6489 55.3196 75.7363 57.2322 75.7363 59.5831V63.9374C75.7363 66.2883 77.6489 68.2008 79.9998 68.2008C82.3507 68.2008 84.2633 66.2883 84.2633 63.9374V59.5831C84.2633 57.2322 82.3507 55.3196 79.9998 55.3196ZM79.9998 58.041C80.8502 58.041 81.5419 58.7328 81.5419 59.5831C81.5419 60.4335 80.8502 61.1253 79.9998 61.1253C79.1495 61.1253 78.4577 60.4335 78.4577 59.5831C78.4577 58.7328 79.1495 58.041 79.9998 58.041ZM79.9998 65.4795C79.1495 65.4795 78.4577 64.7877 78.4577 63.9374V63.5569C78.9363 63.7432 79.4561 63.8466 79.9998 63.8466C80.5436 63.8466 81.0633 63.7432 81.5419 63.5569V63.9374C81.5419 64.7877 80.8502 65.4795 79.9998 65.4795Z" fill="white"/>
</svg>
