<svg width="25" height="25" viewBox="0 0 25 25" fill="none" xmlns="http://www.w3.org/2000/svg">
<g clip-path="url(#clip0)">
<path d="M19.3315 4.44064H11.5395C10.808 2.04456 8.55067 0.250488 5.88617 0.250488C2.63254 0.260047 0 2.89271 0 6.13733C0 9.38176 2.63254 12.0146 5.88617 12.0242C6.10246 12.0276 6.31894 12.019 6.53442 11.9989L6.49748 16.7269H3.74351C3.51745 16.7269 3.31255 16.8888 3.31255 17.1141V17.9325C3.31255 19.6529 4.6418 21.0611 6.2778 21.1387V21.1622H16.4517V21.1359C16.5028 21.1399 16.5717 21.1425 16.6356 21.1425C18.3417 21.1425 19.7237 19.7025 19.7237 17.9325V4.85147C19.7275 4.74473 19.6881 4.64098 19.6143 4.56371C19.5406 4.48644 19.4385 4.44203 19.3315 4.44064V4.44064ZM0.801226 6.13833C0.801226 3.33779 3.07789 1.06777 5.88617 1.06777C8.69466 1.06777 10.9711 3.33779 10.9711 6.13833C10.9711 8.93867 8.69466 11.2089 5.88617 11.2089C3.07909 11.2057 0.804421 8.93747 0.801226 6.13833ZM6.42858 20.3465C5.17342 20.3465 4.13055 19.2528 4.13055 17.9325V17.5426H13.5376V17.9325C13.5438 18.8462 13.9232 19.718 14.5884 20.3465H6.42858ZM18.9057 17.9325C18.9057 19.2528 17.8856 20.3268 16.6306 20.3268C15.3755 20.3268 14.3556 19.2528 14.3556 17.9325V17.1141C14.358 17.0095 14.317 16.9087 14.2423 16.8355C14.1676 16.762 14.066 16.7227 13.9613 16.7269H7.31548L7.35342 11.8507C7.83292 11.7223 8.29425 11.5339 8.72661 11.2903C8.8027 11.3501 8.89816 11.3798 8.99462 11.374H16.4801C16.7059 11.374 16.8891 11.1914 16.8891 10.9661C16.8891 10.7409 16.7059 10.5583 16.4801 10.5583H9.75431C10.366 10.0363 10.8633 9.3943 11.2152 8.67202H12.678C12.9039 8.67202 13.087 8.4894 13.087 8.26417C13.087 8.03894 12.9039 7.85633 12.678 7.85633H11.5333C11.7021 7.29913 11.7881 6.72042 11.7889 6.13833C11.7883 5.8432 11.7664 5.54827 11.7232 5.25633H18.9057V17.9325Z" fill="white"/>
<path d="M16.4802 13.5659H8.99494C8.76907 13.5659 8.58594 13.7485 8.58594 13.9738C8.58594 14.199 8.76907 14.3816 8.99494 14.3816H16.4802C16.706 14.3816 16.8892 14.199 16.8892 13.9738C16.8892 13.7485 16.706 13.5659 16.4802 13.5659Z" fill="white"/>
<path d="M9.67056 7.6396L8.30116 6.27388C8.14839 6.12154 7.94089 6.03651 7.72481 6.0377C7.50873 6.0389 7.30223 6.12632 7.15125 6.28026L6.86107 6.57598C6.67235 6.76955 6.59307 7.04437 6.64978 7.30823L6.48263 7.47491L4.54367 5.54184L4.70443 5.38153C4.76335 5.39507 4.82366 5.40204 4.88437 5.40244C5.09866 5.40284 5.30456 5.3178 5.45593 5.16665L5.7515 4.87192C6.06684 4.55688 6.06684 4.04668 5.7515 3.73163L4.38191 2.36572C4.06597 2.05127 3.55432 2.05127 3.23838 2.36572L2.94282 2.66045C2.70836 2.89424 2.64086 3.24712 2.77267 3.55061L2.37085 3.95149C1.69604 4.62419 1.69604 5.71489 2.37085 6.38759L5.63407 9.64178C6.30868 10.3145 7.40268 10.3145 8.07729 9.64178L8.4789 9.25265C8.58175 9.30284 8.69419 9.33072 8.80862 9.3347H8.81321C9.03089 9.33032 9.23759 9.23891 9.38677 9.0808L9.67695 8.77929C9.9853 8.46047 9.9825 7.95484 9.67056 7.6396ZM3.81015 2.9494L5.16656 4.30178L4.88437 4.58317L3.52796 3.23059L3.81015 2.9494ZM6.85568 9.33092C6.61424 9.33171 6.38278 9.23593 6.21242 9.06526L2.94941 5.81108C2.59413 5.4568 2.59413 4.88248 2.94941 4.5284L3.31108 4.16776L4.03801 4.89263L3.95913 4.9711C3.65417 5.26901 3.6372 5.75293 3.92038 6.07136C3.93297 6.0855 3.94595 6.09904 3.95613 6.10899L5.91706 8.06417C6.2316 8.37523 6.73905 8.37384 7.05199 8.06139L7.13607 7.97755L7.86261 8.70262L7.49874 9.06526C7.32859 9.23593 7.09693 9.33152 6.85568 9.33092ZM8.80862 8.49233L7.45241 7.13995L7.7294 6.85757L9.08561 8.20995L8.80862 8.49233Z" fill="white"/>
<path d="M23.0686 9.3728C22.9995 9.2344 22.8577 9.14697 22.7027 9.14697C22.5476 9.14697 22.406 9.2344 22.3367 9.3728L20.7085 12.6276C20.6801 12.6843 20.6653 12.7467 20.6655 12.8102L20.6763 22.4943C20.6793 23.5619 21.5482 24.4258 22.6191 24.4252H22.7864C23.8571 24.4258 24.7262 23.5619 24.7292 22.4943L24.74 12.808C24.7402 12.7449 24.7254 12.6827 24.697 12.6264L23.0686 9.3728ZM22.7027 10.4605L23.6699 12.3938H21.7356L22.7027 10.4605ZM21.4839 13.2095H23.9216L23.913 20.9075H21.4925L21.4839 13.2095ZM22.7864 23.6095H22.6191C22.3225 23.6121 22.0369 23.4968 21.826 23.2891C21.6149 23.0812 21.4955 22.7982 21.4943 22.5025L21.4933 21.7232H23.9122L23.9112 22.5025C23.91 22.7982 23.7906 23.0812 23.5795 23.2891C23.3684 23.4968 23.083 23.6121 22.7864 23.6095V23.6095Z" fill="white"/>
</g>
<defs>
<clipPath id="clip0">
<rect width="24.74" height="24.67" fill="white"/>
</clipPath>
</defs>
</svg>
