<svg width="20" height="20" viewBox="0 0 20 20" fill="none" xmlns="http://www.w3.org/2000/svg">
<g clip-path="url(#clip0)">
<path d="M10.9807 1.25L0 9.69747L1.51504 11.6669L10.9807 4.38534L20.4464 11.6669L21.9614 9.69747L10.9807 1.25Z" fill="white"/>
<path d="M10.5538 6.01031L3 11.821V11.8215V19.6102H18.1076V11.8215V11.821L10.5538 6.01031ZM13.9571 14.0919C13.6449 14.6622 13.1673 15.1118 12.7461 15.5082C12.6756 15.5744 12.6061 15.6401 12.5378 15.7053C12.2754 15.957 12.0122 16.1983 11.7571 16.4311C11.508 16.6587 11.2508 16.8944 11 17.1349L10.5538 17.5635L10.1076 17.1349C9.85682 16.8944 9.59958 16.6587 9.3505 16.4311C9.09541 16.1983 8.83218 15.957 8.5698 15.7053C8.50151 15.64 8.43194 15.5743 8.36151 15.5082C7.94025 15.1118 7.46268 14.6622 7.1505 14.0919C6.71204 13.2897 6.72577 12.3961 7.18914 11.6398C7.63747 10.9072 8.33444 10.5001 9.15126 10.4941C9.63308 10.4911 10.1093 10.6281 10.5276 10.8918L10.5538 10.9085L10.5818 10.8909C10.9931 10.6315 11.4621 10.4941 11.9379 10.4941H11.9564C12.7731 10.5001 13.4701 10.9072 13.9185 11.6398C14.3818 12.3961 14.3955 13.2897 13.9571 14.0919Z" fill="white"/>
</g>
<defs>
<clipPath id="clip0">
<rect width="20" height="20" fill="white"/>
</clipPath>
</defs>
</svg>
