<svg width="51" height="51" viewBox="0 0 51 51" fill="none" xmlns="http://www.w3.org/2000/svg">
<path d="M25.5 0.5C11.4395 0.5 0 11.4395 0 25.5C0 39.5605 11.4395 51 25.5 51C39.5605 51 51 39.5605 51 25.5C51 11.4395 39.5605 0.5 25.5 0.5ZM25.5 51C12.6109 51 0 38.3891 0 25.5C0 12.6109 12.6109 0.5 25.5 0.5C38.3891 0.5 51 12.6109 51 25.5C51 38.3891 38.3891 51 25.5 51Z" fill="#C92020" fill-opacity="0.73"/>
<path d="M35.8137 15.1863C35.3986 14.7712 34.7263 14.7712 34.3113 15.1863L25.5 23.9976L16.6887 15.1864C16.2736 14.7713 15.6013 14.7713 15.1863 15.1864C14.7712 15.6015 14.7712 16.2738 15.1863 16.6888L23.9976 25.5001L15.1863 34.3113C14.7712 34.7264 14.7712 35.3987 15.1863 35.8137C15.3938 36.0212 15.6657 36.125 15.9376 36.125C16.2094 36.125 16.4812 36.0212 16.6888 35.8137L25.5 27.0025L34.3112 35.8137C34.5187 36.0212 34.7906 36.125 35.0625 36.125C35.3343 36.125 35.6061 36.0212 35.8137 35.8137C36.2288 35.3986 36.2288 34.7263 35.8137 34.3113L27.0024 25.5001L35.8136 16.6888C36.2287 16.2737 36.2287 15.6014 35.8137 15.1863Z" fill="#C92020" fill-opacity="0.73"/>
</svg>
