<svg width="146" height="160" viewBox="0 0 146 160" fill="none" xmlns="http://www.w3.org/2000/svg">
<g clip-path="url(#clip0)">
<path d="M128.822 144.569L81.9097 144.724C69.4641 140.982 59.2674 127.985 59.2029 108.499C59.1904 105.563 59.412 102.632 59.8656 99.7313L97.6509 91.2369L126.8 84.6846C128.948 86.6092 130.949 88.6916 132.788 90.9142L104.914 105.641L91.7654 112.589L106.541 107.488L137.208 96.9018C139.121 99.8277 140.825 102.885 142.308 106.05L133.055 115.619L143.522 108.762C143.567 108.867 143.611 108.973 143.656 109.078C150.29 124.837 142.059 144.525 128.822 144.569Z" fill="#F2F2F2"/>
<path d="M121.112 80.274C114.018 82.3128 105.296 84.8887 96.3284 87.5661C83.3627 91.4383 69.8841 95.5246 60.0713 98.5117L60.0777 98.4767C60.4404 96.3806 61.2932 94.4 62.5664 92.6965C69.8354 83.2393 79.0914 76.6328 89.3929 74.1793H89.3938C92.2906 73.4879 95.2575 73.1337 98.2356 73.1237C106.432 73.0966 114.195 75.6688 121.112 80.274Z" fill="#F2F2F2"/>
<path d="M73.723 148.994C99.4944 148.994 120.386 147.436 120.386 145.513C120.386 143.59 99.4944 142.031 73.723 142.031C47.9516 142.031 27.0598 143.59 27.0598 145.513C27.0598 147.436 47.9516 148.994 73.723 148.994Z" fill="#3F3D56"/>
<path d="M66.7645 87.8148C66.7645 112.971 51.8188 121.755 33.3823 121.755C14.9457 121.755 0 112.971 0 87.8148C0 62.6581 33.3823 30.6548 33.3823 30.6548C33.3823 30.6548 66.7645 62.6581 66.7645 87.8148Z" fill="#F2F2F2"/>
<path d="M32.1664 117.907L32.5082 96.8532L46.7365 70.8066L32.5618 93.5505L32.7155 84.0837L42.5215 65.2393L32.756 81.5785V81.5787L33.0325 64.5524L43.5331 49.5498L33.0759 61.8749L33.2486 30.6548L32.1633 71.9847L32.2525 70.2796L21.5765 53.9279L32.0812 73.5526L31.0866 92.5681L31.0569 92.0633L18.7493 74.8553L31.0196 93.8464L30.8952 96.2245L30.8729 96.2601L30.8831 96.4555L28.3594 144.699H31.7313L32.1359 119.78L44.3762 100.836L32.1664 117.907Z" fill="#3F3D56"/>
<path d="M106.61 5.96563V138.713C106.608 140.294 105.979 141.81 104.861 142.928C103.744 144.046 102.228 144.674 100.648 144.674H46.7907C46.0077 144.676 45.2322 144.522 44.5085 144.223C43.7848 143.924 43.1273 143.485 42.5734 142.931C42.0196 142.378 41.5804 141.72 41.2811 140.996C40.9817 140.272 40.828 139.496 40.8289 138.713V5.96563C40.8288 5.18219 40.983 4.40642 41.2825 3.6826C41.5821 2.95879 42.0213 2.30112 42.5749 1.74714C43.1285 1.19317 43.7858 0.753746 44.5091 0.453969C45.2325 0.154192 46.0078 -6.7234e-05 46.7907 2.79885e-07H54.8503V1.03421C54.8502 2.33691 55.3671 3.58633 56.2875 4.50767C57.2079 5.42901 58.4563 5.94682 59.7582 5.9472H87.1503C88.1982 5.94944 89.2188 5.61331 90.0606 4.98876C90.2307 4.86491 90.3921 4.72943 90.5436 4.58328C91.023 4.12516 91.4045 3.57436 91.6649 2.96428C91.9252 2.35421 92.059 1.69757 92.0581 1.03421V2.79885e-07H100.648C101.431 -0.000239744 102.206 0.153902 102.93 0.453618C103.653 0.753334 104.31 1.19275 104.864 1.74676C105.418 2.30077 105.857 2.95851 106.156 3.6824C106.456 4.40629 106.61 5.18214 106.61 5.96563Z" fill="#3F3D56"/>
<path d="M71.2691 51.9765C71.2709 55.6811 69.0706 56.9754 66.3558 56.9768C66.2928 56.9768 66.23 56.9761 66.1676 56.9747C66.0418 56.9721 65.9173 56.9664 65.7941 56.9577C63.3438 56.7853 61.4394 55.4265 61.4377 51.9813C61.436 48.4159 65.9878 43.9142 66.3291 43.5813L66.3297 43.581C66.3427 43.5684 66.3493 43.562 66.3493 43.562C66.3493 43.562 71.2673 48.2722 71.2691 51.9765Z" fill="#6C63FF"/>
<path d="M66.1767 56.4102L67.9733 53.8957L66.1723 56.6861L66.1676 56.9747C66.0418 56.9721 65.9173 56.9664 65.7941 56.9577L65.986 53.2515L65.9845 53.2229L65.9878 53.2174L66.006 52.8672L64.1978 50.0716L66.0113 52.6049L66.0159 52.6791L66.1608 49.879L64.6126 46.99L66.1796 49.3869L66.3291 43.5813L66.3297 43.562V43.581L66.3066 48.1593L67.8453 46.3436L66.3002 48.5536L66.2607 51.0609L67.6977 48.654L66.2551 51.4295L66.2332 52.8236L68.3187 49.4734L66.2253 53.31L66.1767 56.4102Z" fill="#3F3D56"/>
<path d="M97.0509 99.2632H50.3877V103.826V110.774V114.683L54.2945 110.774H97.0509V99.2632Z" fill="#6C63FF"/>
<path d="M87.0495 102.058H60.7981V104.188H87.0495V102.058Z" fill="white"/>
<path d="M87.0495 105.253H60.7981V107.383H87.0495V105.253Z" fill="white"/>
<path d="M50.3877 78.272H97.0509V82.8344V89.7824V93.6915L93.1443 89.7824H50.3877V78.272Z" fill="#6C63FF"/>
<path d="M84.5937 81.2715H58.3423V83.4013H84.5937V81.2715Z" fill="white"/>
<path d="M84.5937 84.4663H58.3423V86.5962H84.5937V84.4663Z" fill="white"/>
<path d="M48.5457 29.9912V67.5896H98.8928V29.9912H48.5457ZM55.0333 30.4646C55.1937 30.4646 55.3505 30.5122 55.4839 30.6013C55.6173 30.6905 55.7212 30.8172 55.7826 30.9655C55.8439 31.1138 55.86 31.2769 55.8287 31.4344C55.7974 31.5918 55.7202 31.7364 55.6068 31.8498C55.4934 31.9633 55.3489 32.0406 55.1915 32.0719C55.0342 32.1032 54.8712 32.0872 54.723 32.0258C54.5748 31.9643 54.4482 31.8603 54.359 31.7269C54.2699 31.5934 54.2224 31.4365 54.2224 31.276C54.2224 31.1695 54.2433 31.064 54.2841 30.9655C54.3249 30.8671 54.3846 30.7776 54.4599 30.7022C54.5352 30.6269 54.6246 30.5671 54.723 30.5263C54.8214 30.4856 54.9268 30.4646 55.0333 30.4646V30.4646ZM50.1676 32.0875C50.0072 32.0875 49.8504 32.0399 49.717 31.9508C49.5837 31.8616 49.4797 31.7349 49.4183 31.5866C49.357 31.4383 49.3409 31.2751 49.3722 31.1177C49.4035 30.9603 49.4807 30.8157 49.5941 30.7022C49.7075 30.5888 49.8521 30.5115 50.0094 30.4802C50.1667 30.4489 50.3297 30.4649 50.4779 30.5263C50.6261 30.5878 50.7528 30.6918 50.8419 30.8252C50.931 30.9587 50.9785 31.1156 50.9785 31.276C50.9785 31.4913 50.8931 31.6977 50.741 31.8498C50.5889 32.002 50.3827 32.0875 50.1676 32.0875V32.0875ZM51.7895 31.276C51.7895 31.1156 51.8371 30.9587 51.9262 30.8252C52.0153 30.6918 52.1419 30.5878 52.2901 30.5263C52.4383 30.4649 52.6014 30.4489 52.7587 30.4802C52.916 30.5115 53.0605 30.5888 53.1739 30.7022C53.2873 30.8157 53.3645 30.9603 53.3958 31.1177C53.4271 31.2751 53.4111 31.4383 53.3497 31.5866C53.2883 31.7349 53.1844 31.8616 53.051 31.9508C52.9176 32.0399 52.7608 32.0875 52.6005 32.0875C52.494 32.0875 52.3885 32.0665 52.2901 32.0258C52.1917 31.985 52.1023 31.9252 52.027 31.8498C51.9517 31.7745 51.892 31.685 51.8512 31.5866C51.8105 31.4881 51.7895 31.3826 51.7895 31.276V31.276ZM79.7001 57.0404H52.6005V36.8888H79.7001V57.0404Z" fill="#F2F2F2"/>
<path d="M97.8116 30.6675H96.1897V30.8703H97.8116V30.6675Z" fill="white"/>
<path d="M97.8116 31.2759H96.1897V31.4787H97.8116V31.2759Z" fill="white"/>
<path d="M97.8116 31.8843H96.1897V32.0871H97.8116V31.8843Z" fill="white"/>
<path d="M96.1897 36.5508H83.9578V37.1594H96.1897V36.5508Z" fill="white"/>
<path d="M96.1897 38.647H83.9578V39.2556H96.1897V38.647Z" fill="white"/>
<path d="M96.1897 40.7432H83.9578V41.3518H96.1897V40.7432Z" fill="white"/>
<path d="M96.1897 42.8394H83.9578V43.448H96.1897V42.8394Z" fill="white"/>
<path d="M96.1897 44.936H83.9578V45.5447H96.1897V44.936Z" fill="white"/>
<path d="M96.1897 47.0322H83.9578V47.6408H96.1897V47.0322Z" fill="white"/>
<path d="M96.1897 49.1284H83.9578V49.737H96.1897V49.1284Z" fill="white"/>
<path d="M96.1897 51.2246H83.9578V51.8332H96.1897V51.2246Z" fill="white"/>
<path d="M96.1897 53.3208H83.9578V53.9294H96.1897V53.3208Z" fill="white"/>
<path d="M96.1897 55.417H83.9578V56.0256H96.1897V55.417Z" fill="white"/>
<path d="M54.2226 59.2719C54.6705 59.2719 55.0335 58.9086 55.0335 58.4604C55.0335 58.0122 54.6705 57.6489 54.2226 57.6489C53.7747 57.6489 53.4116 58.0122 53.4116 58.4604C53.4116 58.9086 53.7747 59.2719 54.2226 59.2719Z" fill="white"/>
<path d="M56.9933 59.2719C57.4412 59.2719 57.8043 58.9086 57.8043 58.4604C57.8043 58.0122 57.4412 57.6489 56.9933 57.6489C56.5455 57.6489 56.1824 58.0122 56.1824 58.4604C56.1824 58.9086 56.5455 59.2719 56.9933 59.2719Z" fill="white"/>
<path d="M59.7641 59.2719C60.212 59.2719 60.575 58.9086 60.575 58.4604C60.575 58.0122 60.212 57.6489 59.7641 57.6489C59.3162 57.6489 58.9531 58.0122 58.9531 58.4604C58.9531 58.9086 59.3162 59.2719 59.7641 59.2719Z" fill="white"/>
<path d="M96.1897 62.4502H83.9578V65.899H96.1897V62.4502Z" fill="#6C63FF"/>
<path d="M29.6571 109.671L29.2087 125.375L24.4258 143.77C24.4258 143.77 25.4721 146.911 24.7248 147.659C23.9775 148.406 20.5398 149.753 20.5398 149.753L23.3796 110.568L29.6571 109.671Z" fill="#2F2E41"/>
<path d="M19.273 147.582C19.273 147.582 17.5674 151.337 19.9553 151.678C22.3432 152.02 33.3729 152.93 32.6906 150.995C32.0084 149.061 23.7077 147.241 23.7077 147.241L19.273 147.582Z" fill="#2F2E41"/>
<path d="M12.9172 95.7622C12.9172 95.7622 14.7108 105.483 15.9065 107.129C17.1022 108.774 15.3086 120.738 15.3086 120.738C15.3086 120.738 12.6183 137.938 13.814 140.63C15.0097 143.322 14.7108 142.424 14.5613 143.92C14.4119 145.416 14.1129 146.612 14.5613 147.958C15.0097 149.304 15.0097 149.154 15.1592 149.902C15.3086 150.65 15.1592 154.688 15.1592 154.688C15.1592 154.688 21.5861 156.932 22.6323 153.641C22.6323 153.641 21.1377 151.547 21.5861 149.902C22.0536 148.247 22.3048 146.537 22.3334 144.817V141.677L29.2087 115.953L30.8528 106.68C30.8528 106.68 30.4044 97.2578 28.7603 96.3604C27.1162 95.4631 12.9172 95.7622 12.9172 95.7622Z" fill="#2F2E41"/>
<path d="M15.6075 153.94C15.6075 153.94 13.3656 158.876 16.5043 159.324C19.6431 159.773 34.141 160.97 33.2442 158.427C32.3474 155.885 21.4366 153.492 21.4366 153.492L15.6075 153.94Z" fill="#2F2E41"/>
<path d="M18.4487 52.6956C21.7506 52.6956 24.4273 50.0172 24.4273 46.7133C24.4273 43.4093 21.7506 40.731 18.4487 40.731C15.1469 40.731 12.4702 43.4093 12.4702 46.7133C12.4702 50.0172 15.1469 52.6956 18.4487 52.6956Z" fill="#FFB9B9"/>
<path d="M14.2478 49.3565L14.3591 56.9963L21.6888 57.0212C21.6888 57.0212 19.8286 51.0405 20.6618 49.7899C21.4951 48.5393 14.2478 49.3565 14.2478 49.3565Z" fill="#FFB9B9"/>
<path d="M25.1731 61.2138C25.1731 61.2138 19.9419 54.4837 15.9064 57.3253C11.8709 60.1669 10.3762 66.897 10.3762 66.897L11.273 85.7414C11.273 85.7414 13.5149 88.4334 12.1698 90.2281C10.8246 92.0228 10.0773 91.5741 11.1235 92.9202C12.1698 94.2662 13.3655 95.3131 12.9171 95.7618C12.4687 96.2105 13.3655 96.5096 13.3655 96.5096L29.2086 96.9582C29.2086 96.9582 28.7602 96.36 30.1054 94.5653C31.4505 92.7706 29.8064 90.3777 30.1054 89.4803C30.4043 88.583 30.7032 89.6299 30.8527 87.5361C31.0021 85.4423 25.1731 61.2138 25.1731 61.2138Z" fill="#3F3D56"/>
<path d="M23.6785 99.8003C23.6785 99.8003 23.9774 103.539 26.2193 104.137C27.0601 104.362 27.6906 103.934 28.1504 103.312C28.5797 102.716 28.8204 102.004 28.8413 101.27C28.8622 100.535 28.6624 99.8111 28.2677 99.1913L27.714 98.3047L23.6785 99.8003Z" fill="#FFB9B9"/>
<path d="M9.85322 53.6615C9.85322 53.6615 9.70376 56.6527 9.85322 57.1013C10.0027 57.55 10.1521 57.9987 9.85322 58.4474C9.55429 58.896 9.70376 60.3916 10.0027 60.5412C10.3016 60.6907 9.40483 62.0368 9.70376 62.9341C10.0027 63.8315 10.3016 64.1306 10.4511 64.4297C10.6005 64.7288 10.8413 65.2647 10.8413 65.2647C10.8413 65.2647 15.2339 55.9049 18.821 58.1482C22.4081 60.3916 25.2479 61.1394 25.2479 61.1394C25.2479 61.1394 23.3049 50.6703 9.85322 53.6615Z" fill="#3F3D56"/>
<path d="M16.3549 60.6156C16.3549 60.6156 11.5721 61.0643 11.871 67.3458C12.1699 73.6272 11.4226 83.498 11.4226 83.498C11.4226 83.498 19.6431 96.0609 20.9882 96.9583C22.3334 97.8556 22.4829 97.7061 22.3334 98.4539C22.184 99.2017 22.0345 99.7999 22.6323 100.398C22.9853 100.754 23.3881 101.056 23.8281 101.295C23.8281 101.295 28.6109 99.6503 28.1625 98.1548C27.7141 96.6592 25.6216 94.2662 25.6216 94.2662C25.6216 94.2662 22.0345 88.4335 21.885 87.5361C21.7356 86.6388 21.7356 86.7883 21.2872 86.3397C20.8388 85.891 19.6431 84.0963 19.6431 83.1989V80.3573L20.8961 65.1717C20.953 64.5532 20.8785 63.9297 20.6774 63.3421C20.4763 62.7545 20.1532 62.2161 19.7294 61.7623C19.018 61.0177 17.9429 60.4249 16.3549 60.6156Z" fill="#3F3D56"/>
<path d="M22.3043 42.0997C22.6939 42.2077 23.1043 42.2169 23.4984 42.1266C23.8925 42.0364 24.2579 41.8493 24.5617 41.5825C25.146 41.027 25.3424 40.0645 24.9266 39.3736C24.5677 38.777 23.8695 38.4852 23.2051 38.2778C21.7396 37.8207 20.2136 37.5878 18.6785 37.5869C17.9467 37.5867 17.1826 37.6491 16.5563 38.028C16.2465 38.2155 15.984 38.473 15.6777 38.6661C15.1144 39.0213 14.438 39.1394 13.8195 39.3861C13.1871 39.6433 12.6173 40.0334 12.1486 40.53C11.68 41.0267 11.3234 41.6182 11.103 42.2647C10.9611 42.7032 10.8725 43.1572 10.839 43.6168C10.7379 44.876 10.9602 46.14 11.4849 47.289C12.3189 49.1086 13.9062 50.6386 14.1304 52.6278C14.9849 51.9101 15.2354 50.7062 15.8972 49.8075C16.3898 49.143 17.0931 48.6653 17.8922 48.4525C18.1155 48.423 18.3254 48.3291 18.4963 48.1823C18.6114 48.0232 18.6771 47.8337 18.6854 47.6375L19.0956 44.6821C19.1791 44.0806 19.2918 43.4233 19.7531 43.0287C20.0424 42.8132 20.3776 42.6677 20.7325 42.6034C21.5719 42.3946 22.427 42.255 23.2892 42.1862" fill="#2F2E41"/>
<path opacity="0.1" d="M12.1497 85.6348L20.54 96.53C20.54 96.53 12.8142 90.0676 12.1497 85.6348Z" fill="black"/>
<path opacity="0.1" d="M20.2029 73.5718L20.1235 83.8614L24.9966 91.1756L21.0095 82.9749L20.2029 73.5718Z" fill="black"/>
<path d="M110.884 141.77L109.913 141.048C109.913 141.048 109.27 144.641 109.987 145.179C110.705 145.718 113.394 146.615 113.394 147.691C113.394 148.768 119.491 150.204 119.67 148.589C119.85 146.974 119.132 146.077 119.132 146.077C119.132 146.077 116.263 143.206 115.905 142.667C115.546 142.129 114.65 141.053 114.65 141.053L110.884 141.77Z" fill="#2F2E41"/>
<path d="M125.229 97.0919C125.229 97.0919 125.203 97.2498 125.156 97.5387C125.113 97.7953 125.054 98.1577 124.982 98.6045C124.229 103.203 122.032 116.741 122.181 117.188C122.36 117.727 123.616 119.7 122.181 120.239C121.986 120.352 121.831 120.521 121.735 120.725C121.427 121.297 121.173 121.896 120.976 122.516C120.121 124.999 119.206 128.973 118.677 131.726C118.446 132.935 118.288 133.908 118.241 134.417C118.225 134.535 118.223 134.654 118.236 134.773C118.415 135.49 117.16 138.002 116.622 138.72C116.084 139.438 115.188 140.156 115.367 140.873C115.546 141.591 110.884 143.565 110.346 142.309C109.808 141.053 109.808 140.335 109.629 139.976C109.45 139.617 109.27 137.105 110.167 136.746C111.063 136.387 110.525 130.107 111.422 128.851C111.721 128.433 112.179 127.018 112.658 125.315C112.846 124.647 113.036 123.937 113.222 123.224C113.979 120.305 114.65 117.368 114.65 117.368L114.47 96.3742L124.333 95.1182L124.586 95.6762L125.09 96.7833L125.229 97.0919Z" fill="#2F2E41"/>
<path d="M125.767 131.543C125.767 131.543 127.202 130.107 127.919 131.543C128.637 132.978 129.354 138.541 130.609 139.797C131.864 141.053 133.478 147.333 131.685 147.692C129.892 148.05 127.919 147.153 127.74 146.077C127.561 145 123.795 139.438 123.795 138.899C123.795 138.361 126.305 136.387 126.305 136.387L125.767 131.543Z" fill="#2F2E41"/>
<path d="M103.711 87.2233C103.711 87.2233 106.042 108.217 106.58 110.191C107.118 112.164 109.987 119.7 110.884 120.956C111.78 122.212 117.519 132.44 118.236 132.978C118.953 133.517 120.388 134.952 120.388 134.952C120.388 134.952 123.077 137.644 123.436 138.182C123.795 138.72 126.843 137.105 127.022 136.029C127.202 134.952 126.843 133.158 126.664 132.44C126.485 131.722 127.022 130.646 126.485 130.107C125.947 129.569 123.257 126.878 123.257 125.622C123.257 124.366 118.595 117.009 116.801 115.394C115.008 113.779 115.367 111.088 115.367 111.088V100.142L125.229 97.092C125.229 97.092 124.691 88.4793 123.436 88.4793C122.181 88.4793 105.684 85.6084 103.711 87.2233Z" fill="#2F2E41"/>
<path d="M118.236 57.258C121.504 57.258 124.154 54.607 124.154 51.3368C124.154 48.0666 121.504 45.4155 118.236 45.4155C114.968 45.4155 112.319 48.0666 112.319 51.3368C112.319 54.607 114.968 57.258 118.236 57.258Z" fill="#9F616A"/>
<path d="M116.264 56.0019C116.264 56.0019 115.546 58.6934 114.65 59.4111C113.753 60.1289 116.981 63.1792 116.981 63.1792L123.078 63.5381L124.154 60.1289C124.154 60.1289 122.181 56.1814 122.719 53.6693C123.257 51.1573 116.264 56.0019 116.264 56.0019Z" fill="#9F616A"/>
<path d="M113.753 59.0522C113.753 59.0522 115.367 59.2317 115.726 59.77C116.084 60.3083 118.595 61.9232 120.567 61.5643C122.54 61.2054 123.795 60.6671 124.153 60.8466C124.512 61.026 125.229 64.7941 125.229 64.7941L123.257 70.5359L123.616 86.3259L124.153 90.6322C124.153 90.6322 125.229 89.1968 120.926 90.0939C116.622 90.9911 111.063 89.3762 109.27 89.1968C107.477 89.0173 104.429 88.479 104.249 87.4025C104.07 86.3259 104.787 82.3784 104.787 82.3784L107.656 70.3564L109.449 63.8969L113.753 59.0522Z" fill="#3F3D56"/>
<path d="M115.449 58.2426C115.449 58.2426 113.932 57.4375 113.394 58.1553C112.856 58.873 106.042 59.9496 106.042 60.4879C106.042 61.0262 104.608 75.5601 104.966 76.8162C105.325 78.0722 104.249 79.5076 104.249 79.5076L102.994 84.8906C102.994 84.8906 99.5869 95.1182 101.021 95.4771C102.456 95.8359 103.711 95.4771 104.249 95.4771C104.787 95.4771 104.608 88.6587 106.042 86.8643C107.477 85.07 109.449 80.5842 109.808 79.6871C110.167 78.7899 114.65 66.4091 114.47 64.9737C114.291 63.5382 115.449 58.2426 115.449 58.2426Z" fill="#D0CDE1"/>
<path d="M122.898 59.0522C122.898 59.0522 124.333 59.0523 124.512 59.4111C124.692 59.77 126.485 62.1026 127.202 62.6409C127.919 63.1792 130.43 65.5118 130.43 66.0501C130.43 66.5884 125.23 70.5359 125.23 70.5359C125.23 70.5359 123.078 81.1223 124.154 84.711C125.23 88.2996 126.843 96.9123 126.126 97.4506C125.409 97.9889 123.795 98.1684 123.795 97.4506C123.795 96.7329 122.719 89.0173 121.823 87.4024C120.926 85.7875 118.236 75.5599 119.312 72.689C120.388 69.8181 122.898 59.0522 122.898 59.0522Z" fill="#D0CDE1"/>
<path d="M99.2284 76.8159C99.2284 76.8159 99.049 82.3783 101.022 85.2492C102.301 87.1683 103.382 89.2123 104.249 91.3499C104.249 91.3499 107.477 90.4527 108.015 89.3761C108.553 88.2995 111.96 89.1967 111.96 88.8378C111.96 88.479 107.836 86.6847 107.477 86.3258C107.118 85.9669 105.863 85.9669 105.146 85.2492C104.429 84.5315 104.249 82.9166 104.249 82.9166L103.532 78.2514L99.2284 76.8159Z" fill="#9F616A"/>
<path d="M114.16 47.6856C113.702 47.6745 113.251 47.5711 112.833 47.3815C111.932 46.8951 111.693 45.5097 112.379 44.7489C112.568 44.5553 112.78 44.385 113.009 44.2416L114.372 43.3133C114.975 42.9027 115.592 42.4854 116.296 42.2918C116.94 42.1451 117.604 42.1058 118.261 42.1757C119.543 42.221 120.812 42.4517 122.027 42.8608C123.229 43.3024 124.351 44.041 125.079 45.095C126.233 46.7659 126.248 49.0194 125.613 50.9485C124.977 52.8775 123.77 54.5572 122.58 56.2029L121.963 53.189C121.908 52.9205 121.837 52.6263 121.614 52.4674C121.059 52.0726 120.381 52.8833 119.7 52.8781C119.263 52.8747 118.895 52.5148 118.73 52.1098C118.594 51.6932 118.522 51.2585 118.515 50.8204C118.434 49.8971 118.111 48.6123 117.237 48.1031C116.423 47.6286 115.076 47.7687 114.16 47.6856Z" fill="#2F2E41"/>
<path opacity="0.1" d="M114.492 97.2367C114.492 97.2367 115.098 114.766 115.457 115.304C115.815 115.843 115.457 97.1816 115.457 97.1816L114.492 97.2367Z" fill="black"/>
<path d="M107.477 60.4878H106.043C106.043 60.4878 99.9457 68.7416 100.663 69.2799C101.38 69.8182 100.663 71.2537 100.663 71.2537L99.2285 73.9452C99.2285 73.9452 97.4353 75.5601 97.9732 75.9189C98.5112 76.2778 99.2285 77.7132 99.2285 77.7132C99.2285 77.7132 102.815 77.1749 103.891 79.3281L106.216 76.3902L107.477 60.4878Z" fill="#D0CDE1"/>
<path d="M123.795 75.9188C123.795 75.9188 119.85 76.0982 115.367 73.2273L110.884 71.2535C110.884 71.2535 106.939 65.1529 106.58 66.2294C106.222 67.306 107.118 69.4592 107.118 69.4592C107.118 69.4592 101.244 70.5793 101.568 72.2958C101.634 72.6493 104.608 71.7918 104.608 71.7918C104.608 71.7918 104.07 75.201 107.118 75.3805C110.167 75.5599 111.063 74.8422 111.063 74.8422C111.063 74.8422 123.974 85.6081 126.126 82.1989C128.278 78.7897 123.795 75.9188 123.795 75.9188Z" fill="#9F616A"/>
<path d="M128.457 65.3325L130.43 66.0502V71.4332L131.147 72.5098C131.147 72.5098 130.968 74.663 130.43 75.2013C129.892 75.7396 128.816 75.5601 129.174 76.8162C129.39 77.635 129.451 78.487 129.354 79.3282C129.354 79.3282 126.126 83.4551 125.947 82.9168C125.767 82.3785 123.257 75.7396 122.898 75.7396C122.54 75.7396 126.485 65.3325 126.485 65.3325L128.457 65.3325Z" fill="#D0CDE1"/>
<path d="M104.877 92.5164C104.877 92.5164 103.023 90.7221 103.95 90.6324C104.877 90.5427 108.105 88.7484 108.642 89.6455C109.18 90.5427 104.877 92.5164 104.877 92.5164Z" fill="#2F2E41"/>
<path d="M43.1205 140.211C43.1205 144.812 40.3869 146.419 37.0146 146.419C36.9365 146.419 36.8585 146.418 36.7806 146.416C36.6243 146.413 36.4696 146.406 36.3167 146.395C33.2732 146.18 30.9087 144.49 30.9087 140.211C30.9087 135.782 36.5645 130.194 36.9893 129.78L36.99 129.78C37.0064 129.764 37.0146 129.756 37.0146 129.756C37.0146 129.756 43.1205 135.61 43.1205 140.211Z" fill="#6C63FF"/>
<path d="M36.7921 145.716L39.0253 142.593L36.7865 146.058L36.7806 146.417C36.6243 146.414 36.4695 146.406 36.3167 146.396L36.5574 141.792L36.5555 141.756L36.5596 141.75L36.5823 141.315L34.3379 137.841L36.5893 140.989L36.5945 141.081L36.7765 137.603L34.855 134.013L36.7999 136.992L36.9893 129.781L36.99 129.756V129.78L36.9584 135.467L38.8713 133.212L36.9506 135.957L36.9 139.071L38.686 136.082L36.8925 139.529L36.8643 141.26L39.4572 137.101L36.8546 141.865L36.7921 145.716Z" fill="#3F3D56"/>
</g>
<defs>
<clipPath id="clip0">
<rect width="146" height="160" fill="white"/>
</clipPath>
</defs>
</svg>
