<svg width="23" height="23" viewBox="0 0 23 23" fill="none" xmlns="http://www.w3.org/2000/svg">
<path d="M20.7772 13.3502L18.8513 11.9924C18.5023 11.7465 18.02 11.9969 18.02 12.4235V13.2539H8.7725C8.48126 13.2539 8.24512 13.49 8.24512 13.7813C8.24512 14.0726 8.48126 14.3086 8.7725 14.3086H18.0199V15.1391C18.0199 15.5684 18.5048 15.8142 18.8512 15.5701L20.7771 14.2123C21.0712 14.0051 21.0772 13.5622 20.7772 13.3502Z" fill="white"/>
<path d="M18.1337 17.1674C17.8817 17.0217 17.559 17.1077 17.4132 17.3599C16.1744 19.5015 13.8588 20.9392 11.2126 20.9392C7.26575 20.9392 4.05472 17.7281 4.05472 13.7813C4.05472 9.83445 7.26575 6.62342 11.2126 6.62342C13.8605 6.62342 16.1751 8.06247 17.4131 10.2026C17.559 10.4548 17.8817 10.5408 18.1337 10.3951C18.3858 10.2493 18.4719 9.92663 18.3262 9.67452C16.9014 7.21155 14.2405 5.5687 11.2126 5.5687C6.67348 5.5687 3 9.24178 3 13.7813C3 18.3204 6.67309 21.9939 11.2126 21.9939C14.2418 21.9939 16.902 20.3499 18.3262 17.888C18.472 17.6359 18.3858 17.3133 18.1337 17.1674Z" fill="white"/>
</svg>
