<svg width="169" height="169" viewBox="0 0 169 169" fill="none" xmlns="http://www.w3.org/2000/svg">
<circle cx="84.7325" cy="84.2674" r="78.7674" stroke="white" stroke-width="11"/>
<circle cx="84.7326" cy="84.2675" r="63.0414" fill="white" stroke="white" stroke-width="5"/>
<rect x="79.2095" y="91.1699" width="89.2885" height="33.707" fill="#37245C"/>
<path d="M124.482 114.202C124.482 113.787 124.335 113.47 124.042 113.25C123.75 113.025 123.222 112.791 122.46 112.547C121.699 112.298 121.096 112.054 120.651 111.814C119.44 111.16 118.835 110.279 118.835 109.17C118.835 108.594 118.996 108.082 119.318 107.632C119.646 107.178 120.112 106.824 120.717 106.57C121.328 106.316 122.011 106.189 122.768 106.189C123.53 106.189 124.208 106.329 124.804 106.607C125.4 106.88 125.861 107.269 126.188 107.771C126.521 108.274 126.687 108.846 126.687 109.485L124.489 109.485C124.489 108.997 124.335 108.619 124.028 108.35C123.72 108.077 123.288 107.94 122.731 107.94C122.194 107.94 121.777 108.055 121.479 108.284C121.181 108.509 121.032 108.807 121.032 109.178C121.032 109.524 121.206 109.815 121.552 110.049C121.904 110.284 122.419 110.503 123.098 110.708C124.348 111.084 125.258 111.551 125.83 112.107C126.401 112.664 126.687 113.357 126.687 114.187C126.687 115.11 126.337 115.835 125.639 116.363C124.941 116.885 124.001 117.146 122.819 117.146C121.999 117.146 121.252 116.998 120.578 116.7C119.904 116.397 119.389 115.984 119.033 115.462C118.681 114.939 118.505 114.334 118.505 113.646L120.71 113.646C120.71 114.822 121.413 115.411 122.819 115.411C123.342 115.411 123.75 115.306 124.042 115.096C124.335 114.881 124.482 114.583 124.482 114.202ZM132.628 113.243L132.628 117L130.431 117L130.431 106.336L134.591 106.336C135.392 106.336 136.095 106.482 136.7 106.775C137.311 107.068 137.779 107.486 138.106 108.028C138.434 108.565 138.597 109.178 138.597 109.866C138.597 110.911 138.238 111.736 137.521 112.342C136.808 112.942 135.819 113.243 134.554 113.243L132.628 113.243ZM132.628 111.463L134.591 111.463C135.172 111.463 135.614 111.326 135.917 111.053C136.224 110.779 136.378 110.389 136.378 109.881C136.378 109.358 136.224 108.936 135.917 108.614C135.609 108.292 135.184 108.125 134.642 108.116L132.628 108.116L132.628 111.463ZM147.08 114.803L143.228 114.803L142.495 117L140.159 117L144.128 106.336L146.165 106.336L150.156 117L147.82 117L147.08 114.803ZM143.821 113.023L146.487 113.023L145.146 109.031L143.821 113.023Z" fill="white"/>
<rect y="74" width="91" height="36" fill="#37245C"/>
<path d="M8.48193 99.2021C8.48193 98.7871 8.33545 98.4697 8.04248 98.25C7.74951 98.0254 7.22217 97.791 6.46045 97.5469C5.69873 97.2979 5.0957 97.0537 4.65137 96.8145C3.44043 96.1602 2.83496 95.2788 2.83496 94.1704C2.83496 93.5942 2.99609 93.0815 3.31836 92.6323C3.64551 92.1782 4.11182 91.8242 4.71729 91.5703C5.32764 91.3164 6.01123 91.1895 6.76807 91.1895C7.52979 91.1895 8.2085 91.3286 8.8042 91.6069C9.3999 91.8804 9.86133 92.2686 10.1885 92.7715C10.5205 93.2744 10.6865 93.8457 10.6865 94.4854L8.48926 94.4854C8.48926 93.9971 8.33545 93.6187 8.02783 93.3501C7.72021 93.0767 7.28809 92.9399 6.73145 92.9399C6.19434 92.9399 5.77686 93.0547 5.479 93.2842C5.18115 93.5088 5.03223 93.8066 5.03223 94.1777C5.03223 94.5244 5.20557 94.8149 5.55225 95.0493C5.90381 95.2837 6.41895 95.5034 7.09766 95.7085C8.34766 96.0845 9.2583 96.5508 9.82959 97.1074C10.4009 97.6641 10.6865 98.3574 10.6865 99.1875C10.6865 100.11 10.3374 100.835 9.63916 101.363C8.94092 101.885 8.00098 102.146 6.81934 102.146C5.99902 102.146 5.25195 101.998 4.57813 101.7C3.9043 101.397 3.38916 100.984 3.03272 100.462C2.68115 99.9395 2.50537 99.334 2.50537 98.6455L4.70996 98.6455C4.70996 99.8223 5.41309 100.411 6.81934 100.411C7.3418 100.411 7.74951 100.306 8.04248 100.096C8.33545 99.8809 8.48193 99.583 8.48193 99.2021ZM20.4512 99.8027L16.5986 99.8027L15.8662 102L13.5298 102L17.4995 91.3359L19.5356 91.3359L23.5273 102L21.1909 102L20.4512 99.8027ZM17.1919 98.0229L19.8579 98.0229L18.5176 94.0312L17.1919 98.0229ZM28.9707 100.235L33.6362 100.235L33.6362 102L26.7734 102L26.7734 91.3359L28.9707 91.3359L28.9707 100.235ZM45.4443 96.9097C45.4443 97.9595 45.2588 98.8799 44.8877 99.6709C44.5166 100.462 43.9844 101.072 43.291 101.502C42.6025 101.932 41.8115 102.146 40.918 102.146C40.0342 102.146 39.2456 101.934 38.5522 101.509C37.8589 101.084 37.3218 100.479 36.9409 99.6929C36.5601 98.9019 36.3672 97.9937 36.3623 96.9683L36.3623 96.4409C36.3623 95.3911 36.5503 94.4683 36.9263 93.6724C37.3071 92.8716 37.8418 92.2588 38.5303 91.834C39.2236 91.4043 40.0146 91.1895 40.9033 91.1895C41.792 91.1895 42.5806 91.4043 43.269 91.834C43.9624 92.2588 44.4971 92.8716 44.873 93.6724C45.2539 94.4683 45.4443 95.3887 45.4443 96.4336L45.4443 96.9097ZM43.2178 96.4263C43.2178 95.3081 43.0176 94.4585 42.6172 93.8774C42.2168 93.2964 41.6455 93.0059 40.9033 93.0059C40.166 93.0059 39.5972 93.2939 39.1968 93.8701C38.7964 94.4414 38.5938 95.2812 38.5889 96.3896L38.5889 96.9097C38.5889 97.9985 38.7891 98.8433 39.1895 99.4438C39.5898 100.044 40.166 100.345 40.918 100.345C41.6553 100.345 42.2217 100.057 42.6172 99.4805C43.0127 98.8994 43.2129 98.0547 43.2178 96.9463L43.2178 96.4263ZM57.9629 102L55.7656 102L51.4883 94.9834L51.4883 102L49.291 102L49.291 91.3359L51.4883 91.3359L55.7729 98.3672L55.7729 91.3359L57.9629 91.3359L57.9629 102Z" fill="white"/>
<g clip-path="url(#clip0)">
<path d="M63.3303 103.485L87.1772 118.484L94.6767 106.561L70.8298 91.5614L63.3303 103.485Z" fill="#37245C"/>
<path d="M70.8298 91.5612L94.6768 106.56L99.6764 98.6115L75.8295 83.6123L70.8298 91.5612Z" fill="#656D78"/>
<path d="M51.1732 119.873L77.6702 136.539L88.5023 119.317L62.0054 102.651L51.1732 119.873Z" fill="#656D78"/>
<path d="M108.63 43.228C111.555 45.0679 112.436 48.9351 110.596 51.8603L113.245 53.5269C116.006 49.1371 114.686 43.3395 110.296 40.5784L86.45 25.5797L84.7835 28.2293L108.63 43.228Z" fill="#656D78"/>
<g opacity="0.3">
<path opacity="0.3" d="M109.463 41.9031L109.464 41.9039C113.12 44.2036 114.221 49.0327 111.921 52.6936L113.245 53.5269C116.007 49.1336 114.686 43.3395 110.297 40.5793L110.296 40.5784L86.45 25.5798L85.6168 26.9044L109.463 41.9031Z" fill="white"/>
</g>
<path d="M110.254 55.3432C110.986 55.8035 111.951 55.5839 112.412 54.8515L113.245 53.5269L110.596 51.8603L109.762 53.1849C109.302 53.9174 109.522 54.883 110.254 55.3432Z" fill="#656D78"/>
<g opacity="0.3">
<path opacity="0.3" d="M109.719 54.7235C109.843 54.9657 110.007 55.1883 110.254 55.3433C110.985 55.8036 111.951 55.584 112.412 54.8516L113.245 53.5269L111.92 52.6936L111.087 54.0183C110.782 54.5035 110.253 54.7378 109.719 54.7235Z" fill="white"/>
</g>
<path d="M110.252 55.3421C110.954 55.7836 112.902 57.0087 112.902 57.0087L114.227 57.842C119.526 61.1751 113.01 77.4146 100.51 97.2868L99.6771 98.6116L97.0274 96.945L78.4799 85.279L75.8302 83.6124L76.6635 82.2876C89.1626 62.4155 100.978 49.5091 106.278 52.8423L107.603 53.6756L110.252 55.3421ZM88.779 80.6633C87.1125 83.3128 87.1125 83.3128 91.087 85.8127C95.0614 88.3125 95.0614 88.3125 96.7279 85.663C98.3944 83.0135 99.5694 78.2058 98.2445 77.3725C96.9197 76.5392 96.9197 76.5392 95.5948 75.7059C94.27 74.8726 90.4455 78.0138 88.779 80.6633Z" fill="#37245C"/>
<g opacity="0.4">
<path opacity="0.4" d="M84.5275 116.817L87.1772 118.484L94.6767 106.561L92.027 104.894L84.5275 116.817Z" fill="white"/>
</g>
<g opacity="0.2">
<path opacity="0.2" d="M63.3307 103.485L65.9803 105.151L73.4798 93.2282L70.8302 91.5616L63.3307 103.485Z" fill="black"/>
</g>
<g opacity="0.4">
<path opacity="0.4" d="M97.8604 95.62L97.0271 96.9448L99.677 98.6115L100.51 97.2867C113.009 77.4146 119.526 61.175 114.227 57.8419L112.902 57.0086L111.577 56.1753C116.876 59.5084 110.36 75.7479 97.8604 95.62Z" fill="#37245C" fill-opacity="0.8"/>
</g>
<g opacity="0.2">
<path opacity="0.2" d="M79.315 83.9553L78.4817 85.2802L75.8327 83.614L76.666 82.2891C89.1651 62.4171 100.98 49.5103 106.28 52.8435L107.604 53.6768L108.929 54.5101C103.63 51.1769 91.8141 64.0833 79.315 83.9553Z" fill="black"/>
</g>
<path d="M77.52 130.898L79.1866 128.249C79.1866 128.249 90.8525 109.701 80.2541 103.035C69.6556 96.3688 57.9897 114.916 57.9897 114.916L56.3231 117.566L77.52 130.898Z" fill="#E6E9ED"/>
<path d="M76.5371 126.582L74.8706 129.232L77.5203 130.898L79.1869 128.249C79.1869 128.249 90.8528 109.701 80.2543 103.035C79.7906 102.743 79.3237 102.517 78.8571 102.317C87.1893 109.631 76.5371 126.582 76.5371 126.582Z" fill="white"/>
<g opacity="0.2">
<path opacity="0.2" d="M60.6394 116.583L58.9729 119.232L56.3232 117.566L57.9898 114.916C57.9898 114.916 69.6557 96.3688 80.2541 103.035C80.7179 103.327 81.1245 103.649 81.5066 103.983C71.3058 99.6403 60.6394 116.583 60.6394 116.583Z" fill="black"/>
</g>
<g opacity="0.3">
<path opacity="0.3" d="M51.1732 119.873L77.6702 136.539L78.5035 135.214L52.0065 118.548L51.1732 119.873Z" fill="white"/>
</g>
<g opacity="0.3">
<path opacity="0.3" d="M77.1788 134.381L78.5037 135.214L88.5024 119.317L87.1776 118.484L77.1788 134.381Z" fill="white"/>
</g>
<g opacity="0.2">
<path opacity="0.2" d="M52.0069 118.548L53.3315 119.382L63.3303 103.485L62.0056 102.651L52.0069 118.548Z" fill="black"/>
</g>
<g opacity="0.2">
<path opacity="0.2" d="M92.0271 104.894L94.6768 106.56L99.6765 98.6115L97.0268 96.9449L92.0271 104.894Z" fill="white"/>
</g>
<g opacity="0.2">
<path opacity="0.2" d="M70.8303 91.5614L73.48 93.228L78.4797 85.2791L75.83 83.6125L70.8303 91.5614Z" fill="black"/>
</g>
<path d="M88.9193 118.655C89.2854 118.885 89.3953 119.367 89.165 119.734L78.3325 136.956C78.1022 137.322 77.6195 137.432 77.2534 137.202C76.8872 136.972 76.7773 136.489 77.0076 136.123L87.8402 118.9C88.0703 118.534 88.553 118.424 88.9193 118.655Z" fill="#3A3847"/>
<path d="M62.4229 101.989C62.7891 102.219 62.8991 102.702 62.6688 103.068L51.8363 120.29C51.606 120.656 51.1232 120.767 50.757 120.536C50.3908 120.306 50.2809 119.823 50.5112 119.457L61.3438 102.234C61.5741 101.868 62.0567 101.758 62.4229 101.989Z" fill="#3A3847"/>
<path d="M76.2702 132.885C76.6362 133.116 76.7463 133.598 76.516 133.965L75.6828 135.289C75.4526 135.655 74.9698 135.766 74.6036 135.535C74.2374 135.305 74.1275 134.822 74.3578 134.456L75.1911 133.131C75.4215 132.765 75.9043 132.655 76.2702 132.885Z" fill="#3A3847"/>
<path d="M73.6206 131.219C73.9866 131.449 74.0966 131.932 73.8662 132.298L73.033 133.623C72.8028 133.989 72.32 134.099 71.954 133.869C71.5878 133.638 71.4779 133.156 71.7082 132.789L72.5415 131.465C72.7717 131.099 73.2544 130.989 73.6206 131.219Z" fill="#3A3847"/>
<path d="M70.9709 129.552C71.3369 129.783 71.447 130.265 71.2167 130.632L70.3835 131.956C70.1533 132.322 69.6705 132.432 69.3043 132.202C68.9381 131.972 68.8282 131.489 69.0585 131.123L69.8918 129.798C70.1223 129.432 70.6049 129.322 70.9709 129.552Z" fill="#3A3847"/>
<path d="M68.3216 127.886C68.6877 128.116 68.7976 128.599 68.5673 128.965L67.7341 130.29C67.5039 130.656 67.0211 130.766 66.655 130.536C66.2888 130.305 66.1789 129.823 66.4092 129.456L67.2425 128.132C67.4728 127.766 67.9554 127.656 68.3216 127.886Z" fill="#3A3847"/>
<path d="M65.6718 126.219C66.0379 126.45 66.148 126.932 65.9176 127.299L65.0844 128.623C64.8542 128.989 64.3714 129.099 64.0052 128.869C63.639 128.639 63.5291 128.156 63.7594 127.79L64.5927 126.465C64.8229 126.099 65.3056 125.989 65.6718 126.219Z" fill="#3A3847"/>
<path d="M63.0222 124.553C63.3882 124.783 63.4982 125.266 63.2678 125.632L62.4346 126.957C62.2044 127.323 61.7216 127.433 61.3556 127.202C60.9894 126.972 60.8795 126.489 61.1098 126.123L61.9431 124.798C62.1733 124.432 62.656 124.322 63.0222 124.553Z" fill="#3A3847"/>
<path d="M60.3725 122.886C60.7385 123.116 60.8486 123.599 60.6183 123.965L59.7851 125.29C59.5549 125.656 59.0721 125.766 58.7059 125.536C58.3397 125.306 58.2298 124.823 58.4601 124.457L59.2934 123.132C59.5238 122.766 60.0066 122.656 60.3725 122.886Z" fill="#3A3847"/>
<path d="M57.723 121.22C58.089 121.45 58.199 121.933 57.9686 122.299L57.1355 123.623C56.9052 123.99 56.4224 124.1 56.0564 123.869C55.6902 123.639 55.5803 123.156 55.8106 122.79L56.6439 121.465C56.8741 121.099 57.3568 120.989 57.723 121.22Z" fill="#3A3847"/>
<path d="M55.0733 119.553C55.4395 119.783 55.5494 120.266 55.3191 120.632L54.4859 121.957C54.2557 122.323 53.7729 122.433 53.4067 122.203C53.0405 121.972 52.9306 121.49 53.1609 121.124L53.9942 119.799C54.2244 119.433 54.7071 119.323 55.0733 119.553Z" fill="#3A3847"/>
<path d="M56.7397 116.904L77.9366 130.236C78.3027 130.466 78.4128 130.949 78.1824 131.315C77.9521 131.681 77.4694 131.791 77.1032 131.561L55.9063 118.229C55.5401 117.998 55.4302 117.516 55.6605 117.149C55.8909 116.783 56.3735 116.673 56.7397 116.904Z" fill="#3A3847"/>
<path d="M80.6709 102.373C91.8036 109.375 80.3424 127.881 79.8493 128.665C79.6191 129.031 79.1364 129.141 78.7702 128.911C78.4047 128.681 78.2941 128.198 78.5243 127.832C78.6366 127.653 89.6513 109.87 79.8374 103.698C79.4714 103.467 79.3613 102.985 79.5916 102.618C79.8219 102.252 80.3047 102.142 80.6709 102.373Z" fill="#3A3847"/>
<path d="M80.6709 102.373C81.037 102.603 81.1471 103.086 80.9167 103.452C80.6864 103.818 80.2037 103.928 79.8375 103.698C70.0154 97.5199 58.7647 115.155 58.6524 115.333C58.4221 115.699 57.9395 115.809 57.5733 115.579C57.2071 115.348 57.0971 114.866 57.3274 114.5C57.8204 113.716 69.5378 95.3703 80.6709 102.373Z" fill="#3A3847"/>
<path d="M100.927 96.6243C101.293 96.8546 101.403 97.3373 101.173 97.7035L87.8403 118.9C87.6101 119.266 87.1274 119.376 86.7612 119.146C86.3952 118.916 86.2852 118.433 86.5155 118.067L99.8478 96.8702C100.078 96.5037 100.561 96.394 100.927 96.6243Z" fill="#3A3847"/>
<path d="M77.08 81.6251C77.4462 81.8555 77.5561 82.3381 77.3258 82.7043L63.9934 103.901C63.7632 104.267 63.2805 104.377 62.9143 104.147C62.5484 103.917 62.4385 103.434 62.6687 103.068L76.0011 81.8711C76.2315 81.5048 76.7141 81.395 77.08 81.6251Z" fill="#3A3847"/>
<path d="M72.5721 91.7321L93.7689 105.065C94.135 105.295 94.2451 105.778 94.0148 106.144C93.7845 106.51 93.3018 106.62 92.9356 106.389L71.7388 93.057C71.3726 92.8266 71.2626 92.344 71.4929 91.9778C71.7232 91.6117 72.2059 91.5018 72.5721 91.7321Z" fill="#3A3847"/>
<path d="M77.5718 83.7832L98.7687 97.1156C99.1347 97.3458 99.2448 97.8286 99.0145 98.1948C98.7841 98.561 98.3015 98.6709 97.9353 98.4406L76.7384 85.1082C76.3722 84.8779 76.2622 84.3952 76.4926 84.029C76.7229 83.6628 77.2056 83.5529 77.5718 83.7832Z" fill="#3A3847"/>
<path d="M95.7772 98.932C96.1433 99.1622 96.2534 99.645 96.0231 100.011L94.3565 102.661C94.1263 103.027 93.6435 103.137 93.2773 102.907C92.9111 102.676 92.8012 102.193 93.0315 101.827L94.6981 99.1776C94.9285 98.8117 95.4112 98.7017 95.7772 98.932Z" fill="#3A3847"/>
<path d="M93.1277 97.2655C93.4939 97.4958 93.6038 97.9785 93.3736 98.3445L91.707 100.994C91.4768 101.36 90.994 101.47 90.6278 101.24C90.2617 101.01 90.1518 100.527 90.3821 100.161L92.0488 97.5112C92.279 97.1452 92.7615 97.0352 93.1277 97.2655Z" fill="#3A3847"/>
<path d="M90.4781 95.599C90.8442 95.8292 90.9543 96.312 90.7241 96.678L89.0574 99.3277C88.8272 99.6938 88.3444 99.8039 87.9782 99.5735C87.612 99.3432 87.5021 98.8605 87.7324 98.4943L89.399 95.8446C89.6293 95.4786 90.1119 95.3687 90.4781 95.599Z" fill="#3A3847"/>
<path d="M87.8285 93.9324C88.1947 94.1627 88.3046 94.6454 88.0744 95.0114L86.4078 97.6611C86.1776 98.0272 85.6948 98.1373 85.3286 97.9069C84.9625 97.6767 84.8526 97.194 85.0829 96.8278L86.7495 94.1781C86.9799 93.8122 87.4623 93.7021 87.8285 93.9324Z" fill="#3A3847"/>
<path d="M85.1787 92.2658C85.5447 92.496 85.6548 92.9788 85.4246 93.3448L83.758 95.9945C83.5278 96.3606 83.045 96.4707 82.6788 96.2403C82.3126 96.01 82.2027 95.5273 82.433 95.1611L84.0996 92.5114C84.3302 92.1456 84.8128 92.0357 85.1787 92.2658Z" fill="#3A3847"/>
<path d="M82.5294 90.5994C82.8956 90.8297 83.0055 91.3124 82.7753 91.6784L81.1087 94.3281C80.8785 94.6942 80.3957 94.8043 80.0295 94.5739C79.6635 94.3437 79.5535 93.861 79.7839 93.4948L81.4505 90.8451C81.6805 90.479 82.1632 90.3691 82.5294 90.5994Z" fill="#3A3847"/>
<path d="M79.8795 88.9327C80.2456 89.1629 80.3557 89.6457 80.1254 90.0117L78.4588 92.6614C78.2286 93.0274 77.7458 93.1375 77.3796 92.9072C77.0134 92.6769 76.9035 92.1942 77.1338 91.828L78.8004 89.1783C79.0308 88.8124 79.5135 88.7024 79.8795 88.9327Z" fill="#3A3847"/>
<path d="M77.2299 87.2661C77.5961 87.4964 77.706 87.9791 77.4758 88.3451L75.8092 90.9948C75.5789 91.3608 75.0961 91.4709 74.7299 91.2406C74.3637 91.0103 74.2541 90.5278 74.4845 90.1616L76.1511 87.5119C76.3813 87.1459 76.8637 87.0357 77.2299 87.2661Z" fill="#3A3847"/>
<path d="M114.643 57.1794C122.415 62.0679 107.812 87.1474 101.173 97.7033C100.942 98.0693 100.46 98.1792 100.093 97.9489C99.7274 97.7187 99.6175 97.236 99.8477 96.87C112.755 76.3483 118.236 61.2884 113.81 58.5041C113.444 58.2739 113.334 57.7911 113.564 57.4251C113.794 57.059 114.277 56.9491 114.643 57.1794Z" fill="#3A3847"/>
<path d="M106.695 52.1798C107.061 52.4101 107.171 52.8928 106.94 53.259C106.71 53.625 106.227 53.735 105.861 53.5046C101.435 50.7203 90.2338 62.1824 77.326 82.7042C77.0958 83.0703 76.6131 83.1802 76.2469 82.9499C75.8811 82.7198 75.7711 82.2371 76.0013 81.871C82.6405 71.3152 98.9212 47.2905 106.695 52.1798Z" fill="#3A3847"/>
<path d="M113.66 52.8631C114.026 53.0934 114.136 53.5761 113.906 53.9423L113.073 55.267C112.842 55.6332 112.36 55.7431 111.993 55.5128C111.627 55.2825 111.518 54.7999 111.748 54.4337L112.581 53.109C112.812 52.7429 113.294 52.6328 113.66 52.8631Z" fill="#3A3847"/>
<path d="M111.01 51.1965C111.376 51.4268 111.487 51.9095 111.256 52.2757L110.423 53.6004C110.193 53.9666 109.71 54.0765 109.344 53.8462C108.978 53.6159 108.868 53.1332 109.098 52.767L109.931 51.4423C110.162 51.0763 110.645 50.9664 111.01 51.1965Z" fill="#3A3847"/>
<path d="M109.044 42.5643C112.332 44.6321 113.324 48.9883 111.256 52.2757C111.026 52.6419 110.543 52.7517 110.177 52.5213C109.811 52.291 109.701 51.8085 109.931 51.4423C111.539 48.8857 110.767 45.4969 108.211 43.8889C107.845 43.6587 107.735 43.1759 107.965 42.8099C108.196 42.4439 108.678 42.3341 109.044 42.5643Z" fill="#3A3847"/>
<path d="M110.711 39.9147C115.459 42.9011 116.892 49.194 113.906 53.9422C113.676 54.3084 113.193 54.4182 112.827 54.1879C112.461 53.9576 112.351 53.4751 112.581 53.1089C115.108 49.0918 113.895 43.7666 109.877 41.2394C109.511 41.0092 109.401 40.5264 109.632 40.1604C109.862 39.7944 110.345 39.6844 110.711 39.9147Z" fill="#3A3847"/>
<path d="M110.177 52.5211C110.194 52.5321 110.211 52.5447 110.229 52.5575C110.575 52.8151 110.646 53.306 110.388 53.6524C110.388 53.6524 110.197 53.9369 110.25 54.1976C110.283 54.363 110.424 54.5254 110.669 54.6797C111.133 54.9718 111.347 54.8426 111.439 54.7864C111.577 54.6965 111.692 54.532 111.723 54.4774C111.933 54.1043 112.407 53.9636 112.782 54.1686C113.162 54.3683 113.302 54.8372 113.103 55.2156C113.056 55.3049 112.792 55.7729 112.271 56.1117C111.828 56.3802 110.952 56.7068 109.836 56.0045C109.048 55.5089 108.788 54.9013 108.709 54.4781C108.537 53.5481 109.073 52.798 109.134 52.7156C109.379 52.3862 109.834 52.3058 110.177 52.5211Z" fill="#3A3847"/>
<path d="M85.1976 27.5654L109.044 42.5644C109.41 42.7946 109.52 43.2772 109.29 43.6434C109.06 44.0094 108.577 44.1194 108.211 43.8891L84.3644 28.8901C83.9982 28.6597 83.8886 28.1773 84.1189 27.8112C84.349 27.4449 84.8314 27.335 85.1976 27.5654Z" fill="#3A3847"/>
<path d="M86.8642 24.9157L110.711 39.9147C111.077 40.1449 111.187 40.6277 110.957 40.9939C110.726 41.3599 110.244 41.4698 109.878 41.2395L86.0309 26.2405C85.6647 26.0102 85.5551 25.5277 85.7854 25.1617C86.0155 24.7954 86.498 24.6853 86.8642 24.9157Z" fill="#3A3847"/>
<path d="M81.5042 101.048C81.8702 101.278 81.9803 101.761 81.75 102.127L80.9167 103.452C80.6865 103.818 80.2037 103.928 79.8375 103.698C79.4713 103.467 79.3614 102.985 79.5917 102.619L80.425 101.294C80.6553 100.928 81.138 100.818 81.5042 101.048Z" fill="#3A3847"/>
<path d="M100.028 62.7784L107.977 67.7781C108.343 68.0084 108.453 68.4911 108.223 68.8573C107.993 69.2234 107.51 69.3333 107.144 69.103L99.195 64.1033C98.8289 63.8731 98.719 63.3904 98.9492 63.0243C99.1794 62.658 99.6621 62.5481 100.028 62.7784Z" fill="#3A3847"/>
<path d="M104.344 61.7949L106.994 63.4615C107.36 63.6919 107.47 64.1746 107.24 64.5408C107.009 64.907 106.527 65.0167 106.161 64.7864L103.511 63.1198C103.145 62.8896 103.035 62.4069 103.265 62.0407C103.495 61.6745 103.978 61.5648 104.344 61.7949Z" fill="#3A3847"/>
<path d="M113.319 56.3462L114.643 57.1795C115.009 57.4097 115.12 57.8925 114.889 58.2587C114.659 58.6247 114.176 58.7347 113.81 58.5043L112.485 57.6711C112.119 57.4407 112.009 56.958 112.239 56.592C112.47 56.2258 112.952 56.1159 113.319 56.3462Z" fill="#3A3847"/>
<path d="M106.695 52.1798L108.019 53.0131C108.385 53.2433 108.495 53.726 108.265 54.0922C108.035 54.4582 107.552 54.5682 107.186 54.338L105.861 53.5047C105.495 53.2744 105.385 52.7918 105.615 52.4257C105.846 52.0594 106.328 51.9495 106.695 52.1798Z" fill="#3A3847"/>
<path d="M79.6033 127.586C79.9693 127.816 80.0794 128.299 79.8491 128.665L78.1826 131.315C77.9523 131.681 77.4696 131.791 77.1034 131.561C76.7372 131.33 76.6272 130.848 76.8576 130.482L78.5242 127.832C78.7545 127.466 79.2374 127.356 79.6033 127.586Z" fill="#3A3847"/>
<path d="M58.4064 114.254C58.7726 114.484 58.8825 114.967 58.6522 115.333L56.9857 117.983C56.7554 118.349 56.2727 118.459 55.9065 118.228C55.5403 117.998 55.4303 117.515 55.6607 117.149L57.3273 114.499C57.5575 114.133 58.0402 114.024 58.4064 114.254Z" fill="#3A3847"/>
<rect x="92.1635" y="69" width="17" height="15" transform="rotate(37.6544 92.1635 69)" fill="#37245C"/>
<path d="M87.2067 82.1455C87.2697 81.491 87.5095 80.9025 87.9261 80.3801C88.3491 79.8584 89.0827 79.3044 90.1267 78.7181C89.7598 78.1138 89.4801 77.5538 89.2878 77.0382C89.096 76.5161 89.0261 75.9861 89.0778 75.4483C89.1839 74.3466 89.6167 73.4857 90.3763 72.8655C91.1429 72.2395 92.116 71.9832 93.2954 72.0968C94.3517 72.1985 95.1866 72.5961 95.8 73.2896C96.42 73.9837 96.6847 74.8006 96.5942 75.7403C96.4857 76.8679 95.8196 77.8077 94.5961 78.5598L93.4315 79.2423L95.5982 82.3157C96.0529 81.6008 96.3239 80.7897 96.4113 79.8824L98.8025 80.1126C98.6254 81.9531 98.0574 83.4027 97.0986 84.4616L98.981 87.1249L95.7926 86.8179L95.144 85.9118C94.0345 86.4982 92.8026 86.7263 91.4482 86.5959C90.0484 86.4611 88.9625 85.987 88.1906 85.1736C87.4192 84.3537 87.0913 83.3444 87.2067 82.1455ZM91.8014 84.3538C92.4753 84.4187 93.1318 84.2922 93.7706 83.9744L91.2915 80.4785L91.0733 80.6046C90.4492 81.0416 90.1049 81.5939 90.0407 82.2614C89.9864 82.8252 90.1203 83.3024 90.4424 83.6932C90.7716 84.078 91.2246 84.2983 91.8014 84.3538ZM91.5992 75.6518C91.5524 76.1378 91.7786 76.7777 92.2778 77.5713L93.074 77.1477C93.4801 76.9382 93.7656 76.7237 93.9306 76.5041C94.1021 76.2852 94.2035 76.0137 94.2347 75.6897C94.2659 75.3657 94.1731 75.0722 93.9565 74.8094C93.7398 74.5465 93.4435 74.397 93.0676 74.3608C92.6658 74.3221 92.3293 74.4205 92.0581 74.656C91.7934 74.8922 91.6404 75.2241 91.5992 75.6518Z" fill="white"/>
</g>
<defs>
<clipPath id="clip0">
<rect x="97.788" y="150.118" width="100.165" height="100.165" transform="rotate(-147.831 97.788 150.118)" fill="white"/>
</clipPath>
</defs>
</svg>
