<svg width="32" height="32" viewBox="0 0 32 32" fill="none" xmlns="http://www.w3.org/2000/svg">
<circle cx="16" cy="16" r="16" fill="white"/>
<path d="M24.3242 23.3258L17.2409 18.3258C17.0968 18.224 16.9042 18.224 16.7601 18.3258L9.67674 23.3258C9.56592 23.4039 9.49998 23.5311 9.50006 23.6666V24.0833C9.50002 24.3134 9.68658 24.5 9.9167 24.5H24.0834C24.3135 24.5 24.5001 24.3134 24.5001 24.0833V23.6666C24.5003 23.5313 24.4347 23.4041 24.3242 23.3258Z" fill="#CFD8DC"/>
<path d="M17.2408 18.3258L10.1575 13.3258C9.96973 13.1928 9.70965 13.2372 9.57664 13.425C9.5266 13.4956 9.49981 13.5801 9.5 13.6666V23.6666C9.49953 23.8968 9.68574 24.0837 9.91586 24.0841C10.0024 24.0843 10.0869 24.0575 10.1575 24.0075L17.2408 19.0075C17.4288 18.8748 17.4737 18.6149 17.341 18.4268C17.3136 18.388 17.2797 18.3541 17.2408 18.3267V18.3258Z" fill="#FAFAFA"/>
<path d="M24.275 13.2967C24.1365 13.2259 23.9702 13.2371 23.8425 13.3259L16.7591 18.3259C16.5711 18.4586 16.5263 18.7185 16.659 18.9065C16.6864 18.9454 16.7203 18.9793 16.7591 19.0067L23.8425 24.0067C24.0302 24.1397 24.2903 24.0953 24.4233 23.9075C24.4732 23.8371 24.5 23.753 24.5 23.6667V13.6667C24.5 13.511 24.4132 13.3683 24.275 13.2967Z" fill="#EEEEEE"/>
<path d="M25.3125 9.78668C25.2563 9.61562 25.0967 9.5 24.9167 9.5H9.08331C8.85319 9.5 8.66663 9.68656 8.66663 9.91668C8.66663 10.0478 8.72838 10.1713 8.83331 10.25L16.75 16.0833C16.8969 16.1915 17.0972 16.1915 17.2442 16.0833L25.1608 10.25C25.3059 10.1443 25.367 9.95766 25.3125 9.78668Z" fill="#ECEFF1"/>
<path d="M24.9167 9.5C24.8265 9.5 24.7388 9.52926 24.6667 9.58332L17 15.2325L9.33332 9.58332C9.26121 9.52926 9.17348 9.5 9.08332 9.5C7.93273 9.5 7 10.4327 7 11.5833V22.4166C7 23.5673 7.93273 24.5 9.08332 24.5H9.91664C10.1468 24.5 10.3333 24.3134 10.3333 24.0833V14.4708L16.7591 19.0075C16.9032 19.1093 17.0959 19.1093 17.24 19.0075L23.6666 14.4708V24.0833C23.6666 24.3134 23.8532 24.5 24.0833 24.5H24.9166C26.0673 24.5 27 23.5673 27 22.4167V11.5833C27 10.4327 26.0673 9.5 24.9167 9.5Z" fill="#F44336"/>
</svg>
