<svg width="155" height="145" viewBox="0 0 155 145" fill="none" xmlns="http://www.w3.org/2000/svg">
<rect width="155" height="145" fill="#37245C"/>
<g clip-path="url(#clip0)">
<path d="M73 75.5C53.3755 75.5 38 68.5805 38 59.75C38 50.9195 53.3755 44 73 44C92.6245 44 108 50.9195 108 59.75C108 68.5805 92.6245 75.5 73 75.5ZM73 47.5C54.436 47.5 41.5 53.9575 41.5 59.75C41.5 65.5425 54.436 72 73 72C91.564 72 104.5 65.5425 104.5 59.75C104.5 53.9575 91.564 47.5 73 47.5Z" fill="white"/>
<path d="M73 114C53.3755 114 38 107.08 38 98.25C38 97.284 38.784 96.5 39.75 96.5C40.716 96.5 41.5 97.284 41.5 98.25C41.5 104.043 54.436 110.5 73 110.5C73.966 110.5 74.75 111.284 74.75 112.25C74.75 113.216 73.966 114 73 114Z" fill="white"/>
<path d="M39.75 100C38.784 100 38 99.216 38 98.25V59.75C38 58.784 38.784 58 39.75 58C40.716 58 41.5 58.784 41.5 59.75V98.25C41.5 99.216 40.716 100 39.75 100Z" fill="white"/>
<path d="M106.25 75.5C105.284 75.5 104.5 74.716 104.5 73.75V59.75C104.5 58.784 105.284 58 106.25 58C107.216 58 108 58.784 108 59.75V73.75C108 74.716 107.216 75.5 106.25 75.5Z" fill="white"/>
<path d="M120.25 114H73C72.034 114 71.25 113.216 71.25 112.25C71.25 111.284 72.034 110.5 73 110.5H115.753L112.067 107.123C111.707 106.79 111.5 106.325 111.5 105.835C111.5 105.345 111.707 104.876 112.067 104.543L117.66 99.419L112.067 94.2915C111.707 93.959 111.5 93.49 111.5 93C111.5 92.51 111.707 92.041 112.067 91.7085L117.66 86.581L112.067 81.457C111.707 81.1245 111.5 80.659 111.5 80.1655C111.5 79.672 111.707 79.2065 112.067 78.874L115.753 75.5H73C72.034 75.5 71.25 74.716 71.25 73.75C71.25 72.784 72.034 72 73 72H120.25C120.971 72 121.622 72.441 121.881 73.1165C122.144 73.7885 121.965 74.5515 121.433 75.0415L115.84 80.169L121.433 85.293C121.794 85.6255 122 86.091 122 86.5845C122 87.078 121.794 87.5435 121.433 87.876L115.84 93L121.433 98.1275C121.794 98.46 122 98.9255 122 99.4155C122 99.9055 121.794 100.375 121.433 100.707L115.84 105.831L121.433 110.959C121.965 111.449 122.144 112.212 121.881 112.884C121.622 113.559 120.971 114 120.25 114Z" fill="white"/>
<path d="M73 66.75C64.572 66.75 55.5 64.559 55.5 59.75C55.5 54.941 64.572 52.75 73 52.75C81.428 52.75 90.5 54.941 90.5 59.75C90.5 64.559 81.428 66.75 73 66.75ZM73 56.25C63.8125 56.25 59 58.8505 59 59.75C59 60.6495 63.8125 63.25 73 63.25C82.1875 63.25 87 60.6495 87 59.75C87 58.8505 82.1875 56.25 73 56.25Z" fill="white"/>
</g>
<defs>
<clipPath id="clip0">
<rect width="84" height="84" fill="white" transform="translate(38 37)"/>
</clipPath>
</defs>
</svg>
