<svg width="26" height="26" viewBox="0 0 26 26" fill="none" xmlns="http://www.w3.org/2000/svg">
<path d="M23.856 7.38208H2.14404C0.961848 7.38208 0 8.34388 0 9.52612V13.8685C0 15.0507 0.961848 16.0125 2.14404 16.0125H16.9081C17.1329 16.0125 17.3152 15.8303 17.3152 15.6054C17.3152 15.3805 17.133 15.1983 16.9081 15.1983H2.14404C1.41075 15.1983 0.814176 14.6017 0.814176 13.8684V9.52607C0.814176 8.79278 1.41075 8.19621 2.14404 8.19621H23.8559C24.5892 8.19621 25.1858 8.79278 25.1858 9.52607V11.6973C25.1858 11.9221 25.368 12.1044 25.5929 12.1044C25.8177 12.1044 26 11.9221 26 11.6973V9.52607C26 8.34388 25.0382 7.38208 23.856 7.38208Z" fill="white"/>
<path d="M24.263 12.6599V11.6973C24.263 10.2756 23.1064 9.11899 21.6848 9.11899C20.2631 9.11899 19.1065 10.2756 19.1065 11.6973V12.6599C18.6022 12.8302 18.238 13.3074 18.238 13.8685V15.1712C18.238 17.0717 19.7842 18.6179 21.6848 18.6179C23.5854 18.6179 25.1316 17.0717 25.1316 15.1712V13.8685C25.1315 13.3074 24.7673 12.8302 24.263 12.6599ZM19.9207 11.6973C19.9207 10.7246 20.712 9.93322 21.6848 9.93322C22.6575 9.93322 23.4489 10.7246 23.4489 11.6973V12.5929H19.9207V11.6973ZM24.3173 15.1712C24.3173 16.6228 23.1363 17.8038 21.6848 17.8038C20.2332 17.8038 19.0522 16.6228 19.0522 15.1712V13.8685C19.0522 13.6141 19.2592 13.4071 19.5136 13.4071H23.856C24.1104 13.4071 24.3174 13.6141 24.3174 13.8685V15.1712H24.3173Z" fill="white"/>
<path d="M21.6849 14.3299C21.2209 14.3299 20.8435 14.7073 20.8435 15.1712C20.8435 15.4875 21.0191 15.7633 21.2777 15.907V16.189C21.2777 16.4138 21.46 16.5961 21.6849 16.5961C21.9097 16.5961 22.092 16.4138 22.092 16.189V15.907C22.3506 15.7633 22.5262 15.4875 22.5262 15.1712C22.5262 14.7073 22.1488 14.3299 21.6849 14.3299Z" fill="white"/>
<path d="M12.1024 12.2132L11.2088 11.6972L12.1024 11.1813C12.2971 11.0689 12.3638 10.8199 12.2514 10.6252C12.139 10.4305 11.89 10.3637 11.6953 10.4762L10.8017 10.9921V9.96027C10.8017 9.73547 10.6194 9.55316 10.3946 9.55316C10.1697 9.55316 9.98747 9.73542 9.98747 9.96027V10.9921L9.09387 10.4762C8.89913 10.3637 8.6502 10.4305 8.53777 10.6252C8.42534 10.8199 8.49207 11.0689 8.68676 11.1813L9.58036 11.6972L8.68676 12.2132C8.49207 12.3256 8.42534 12.5746 8.53777 12.7693C8.61318 12.8999 8.74998 12.9729 8.8907 12.9729C8.95976 12.9729 9.02974 12.9553 9.09387 12.9183L9.98747 12.4023V13.4342C9.98747 13.659 10.1697 13.8413 10.3946 13.8413C10.6194 13.8413 10.8017 13.6591 10.8017 13.4342V12.4023L11.6953 12.9183C11.7594 12.9553 11.8294 12.9729 11.8985 12.9729C12.0392 12.9729 12.176 12.8998 12.2514 12.7693C12.3638 12.5746 12.2971 12.3256 12.1024 12.2132Z" fill="white"/>
<path d="M6.89147 12.2132L5.99788 11.6972L6.89147 11.1813C7.08617 11.0689 7.1529 10.8199 7.04047 10.6252C6.92804 10.4305 6.67906 10.3637 6.48436 10.4762L5.59076 10.9921V9.96027C5.59076 9.73547 5.40851 9.55316 5.18365 9.55316C4.95879 9.55316 4.77654 9.73542 4.77654 9.96027V10.9921L3.88294 10.4762C3.68819 10.3637 3.43926 10.4305 3.32683 10.6252C3.2144 10.8199 3.28113 11.0689 3.47582 11.1813L4.36942 11.6972L3.47582 12.2132C3.28113 12.3256 3.2144 12.5746 3.32683 12.7693C3.40224 12.8999 3.53905 12.9729 3.67976 12.9729C3.74882 12.9729 3.8188 12.9553 3.88294 12.9183L4.77654 12.4023V13.4342C4.77654 13.659 4.95879 13.8413 5.18365 13.8413C5.40851 13.8413 5.59076 13.6591 5.59076 13.4342V12.4023L6.48436 12.9183C6.54845 12.9553 6.61847 12.9729 6.68754 12.9729C6.82825 12.9729 6.96506 12.8998 7.04047 12.7693C7.1529 12.5746 7.08617 12.3256 6.89147 12.2132Z" fill="white"/>
<path d="M17.3133 12.2132L16.4197 11.6972L17.3133 11.1813C17.508 11.0689 17.5748 10.8199 17.4623 10.6252C17.3499 10.4305 17.1009 10.3637 16.9062 10.4762L16.0126 10.9921V9.96027C16.0126 9.73547 15.8304 9.55316 15.6055 9.55316C15.3807 9.55316 15.1984 9.73542 15.1984 9.96027V10.9921L14.3048 10.4762C14.1101 10.3637 13.8611 10.4305 13.7487 10.6252C13.6363 10.8199 13.703 11.0689 13.8977 11.1813L14.7913 11.6972L13.8977 12.2132C13.703 12.3256 13.6363 12.5746 13.7487 12.7693C13.8241 12.8999 13.9609 12.9729 14.1016 12.9729C14.1707 12.9729 14.2407 12.9553 14.3048 12.9183L15.1984 12.4023V13.4342C15.1984 13.659 15.3807 13.8413 15.6055 13.8413C15.8304 13.8413 16.0126 13.6591 16.0126 13.4342V12.4023L16.9062 12.9183C16.9703 12.9553 17.0403 12.9729 17.1094 12.9729C17.2501 12.9729 17.3869 12.8998 17.4623 12.7693C17.5747 12.5746 17.508 12.3256 17.3133 12.2132Z" fill="white"/>
</svg>
