<svg width="20" height="22" viewBox="0 0 20 22" fill="none" xmlns="http://www.w3.org/2000/svg">
<path d="M9.595 14.0173C8.92305 14.0173 8.30417 13.767 7.80373 13.3498H11.3863C10.8858 13.767 10.2669 14.0173 9.595 14.0173ZM11.3941 12.6823H7.79593V12.3485C7.79593 11.7965 8.19952 11.3473 8.69546 11.3473H10.4945C10.9905 11.3473 11.3941 11.7965 11.3941 12.3485V12.6823ZM8.99531 10.0123V9.34479C8.99531 8.97666 9.26427 8.67729 9.595 8.67729C9.92572 8.67729 10.1947 8.97666 10.1947 9.34479V10.0123C10.1947 10.3804 9.92572 10.6798 9.595 10.6798C9.26427 10.6798 8.99531 10.3804 8.99531 10.0123ZM10.6208 10.6941C10.7284 10.4939 10.7944 10.2623 10.7944 10.0123V9.34479C10.7944 8.60853 10.2565 8.00979 9.595 8.00979C8.93354 8.00979 8.39562 8.60853 8.39562 9.34479V10.0123C8.39562 10.2623 8.46159 10.4939 8.56923 10.6941C7.80253 10.7666 7.19625 11.4764 7.19625 12.3485V12.6736C6.82144 12.1166 6.59656 11.4277 6.59656 10.6798C6.59656 8.83949 7.94166 7.34229 9.595 7.34229C11.2483 7.34229 12.5934 8.83949 12.5934 10.6798C12.5934 11.4277 12.3685 12.1166 11.9937 12.6736V12.3485C11.9937 11.4764 11.3875 10.7666 10.6208 10.6941Z" fill="white"/>
<path d="M5.39725 5.67396C4.82694 5.67396 4.30971 5.41865 3.93131 5.00646H6.86348C6.48478 5.41865 5.96755 5.67396 5.39725 5.67396ZM5.39725 1.00146C6.55434 1.00146 7.49615 2.04944 7.49615 3.33771C7.49615 3.6965 7.42089 4.03492 7.29076 4.33896H6.89646V2.33646H6.29678V4.33896H5.69709V3.00396H5.0974V4.33896H4.49771V3.67146H3.89803V4.33896H3.50373C3.3736 4.03492 3.29834 3.6965 3.29834 3.33771C3.29834 2.04944 4.24015 1.00146 5.39725 1.00146Z" fill="white"/>
<path d="M1.49922 11.6813H1.10493C0.974797 11.3772 0.899536 11.0384 0.899536 10.68C0.899536 9.39173 1.84135 8.34375 2.99844 8.34375C4.15554 8.34375 5.09735 9.39173 5.09735 10.68C5.09735 11.0384 5.02209 11.3772 4.89196 11.6813H4.49766V9.67875H3.89797V11.6813H3.29829V10.3463H2.6986V11.6813H2.09891V11.0138H1.49922V11.6813ZM4.46438 12.3488C4.08568 12.7609 3.56845 13.0163 2.99844 13.0163C2.42844 13.0163 1.91121 12.7609 1.53251 12.3488H4.46438Z" fill="white"/>
<path d="M5.39725 20.3585C4.82694 20.3585 4.31001 20.1032 3.93131 19.691H6.86348C6.48448 20.1032 5.96755 20.3585 5.39725 20.3585ZM7.29076 19.0235H6.89646V17.021H6.29678V19.0235H5.69709V17.6885H5.0974V19.0235H4.49771V18.356H3.89803V19.0235H3.50373C3.3736 18.7195 3.29834 18.3807 3.29834 18.0223C3.29834 16.7343 4.24015 15.686 5.39725 15.686C6.55434 15.686 7.49615 16.7343 7.49615 18.0223C7.49615 18.3807 7.42089 18.7195 7.29076 19.0235Z" fill="white"/>
<path d="M13.7928 5.67396C13.2225 5.67396 12.7052 5.41865 12.3268 5.00646H15.259C14.8803 5.41865 14.3631 5.67396 13.7928 5.67396ZM13.7928 1.00146C14.9499 1.00146 15.8917 2.04944 15.8917 3.33771C15.8917 3.6965 15.8164 4.03492 15.6863 4.33896H15.292V2.33646H14.6923V4.33896H14.0926V3.00396H13.4929V4.33896H12.8932V3.67146H12.2935V4.33896H11.8992C11.7691 4.03492 11.6938 3.6965 11.6938 3.33771C11.6938 2.04944 12.6357 1.00146 13.7928 1.00146Z" fill="white"/>
<path d="M16.1916 13.0163C15.6213 13.0163 15.1043 12.7609 14.7256 12.3488H17.6578C17.2788 12.7609 16.7619 13.0163 16.1916 13.0163ZM18.0851 11.6813H17.6908V9.67875H17.0911V11.6813H16.4914V10.3463H15.8917V11.6813H15.292V11.0138H14.6923V11.6813H14.298C14.1679 11.3772 14.0927 11.0384 14.0927 10.68C14.0927 9.39173 15.0345 8.34375 16.1916 8.34375C17.3487 8.34375 18.2905 9.39173 18.2905 10.68C18.2905 11.0384 18.2152 11.3772 18.0851 11.6813Z" fill="white"/>
<path d="M13.7928 20.3585C13.2225 20.3585 12.7055 20.1032 12.3268 19.691H15.259C14.88 20.1032 14.3631 20.3585 13.7928 20.3585ZM15.6863 19.0235H15.292V17.021H14.6923V19.0235H14.0926V17.6885H13.4929V19.0235H12.8932V18.356H12.2935V19.0235H11.8992C11.7691 18.7195 11.6938 18.3807 11.6938 18.0223C11.6938 16.7343 12.6357 15.686 13.7928 15.686C14.9499 15.686 15.8917 16.7343 15.8917 18.0223C15.8917 18.3807 15.8164 18.7195 15.6863 19.0235Z" fill="white"/>
<path d="M8.07812 3.00391C8.08922 3.11371 8.09582 3.22485 8.09582 3.33766C8.09582 3.45046 8.08922 3.5616 8.07812 3.67141H11.1119C11.1009 3.5616 11.0943 3.45046 11.0943 3.33766C11.0943 3.22485 11.1009 3.11371 11.1119 3.00391H8.07812Z" fill="white"/>
<path d="M2.9984 7.67616C3.16601 7.67616 3.32913 7.69552 3.48834 7.72822L4.32731 6.09385C4.1423 6.0044 3.96899 5.89093 3.80798 5.75977L2.81909 7.68617C2.87876 7.68183 2.93783 7.67616 2.9984 7.67616V7.67616Z" fill="white"/>
<path d="M4.32731 15.2657L3.48834 13.6313C3.32913 13.6641 3.16601 13.6834 2.9984 13.6834C2.93783 13.6834 2.87876 13.6777 2.81909 13.6734L3.80798 15.5998C3.96899 15.4686 4.1423 15.3552 4.32731 15.2657V15.2657Z" fill="white"/>
<path d="M11.1119 18.3565C11.1009 18.2467 11.0943 18.1355 11.0943 18.0227C11.0943 17.9099 11.1009 17.7988 11.1119 17.689H8.07812C8.08922 17.7988 8.09582 17.9099 8.09582 18.0227C8.09582 18.1355 8.08922 18.2467 8.07812 18.3565H11.1119Z" fill="white"/>
<path d="M15.4375 13.5625L14.616 15.1632C14.8097 15.2323 14.9923 15.327 15.1644 15.4405L16.0696 13.6773C15.851 13.666 15.6393 13.6279 15.4375 13.5625Z" fill="white"/>
<path d="M14.616 6.19776L15.4375 7.79842C15.6393 7.73301 15.851 7.69463 16.0693 7.68361L15.1641 5.92041C14.9923 6.03389 14.8094 6.12834 14.616 6.19776V6.19776Z" fill="white"/>
</svg>
