<svg width="155" height="145" viewBox="0 0 155 145" fill="none" xmlns="http://www.w3.org/2000/svg">
<rect width="155" height="145" rx="5" fill="#37245C"/>
<g clip-path="url(#clip0)">
<path d="M125.904 38.0945C125.9 38.0905 125.895 38.0871 125.891 38.0831C125.197 37.3946 124.239 37 123.262 37H123.257C122.412 37 121.585 37.2904 120.929 37.8169C111.996 44.9519 103.03 52.3167 94.279 59.7061C92.1511 61.5027 90.0214 63.3135 87.8937 65.1343L63.5996 40.8405C61.2007 38.4419 57.2977 38.4423 54.8989 40.8405L43.3609 52.3787C42.8804 52.8594 42.8804 53.6384 43.3609 54.1189C43.8414 54.5993 44.6206 54.5993 45.1009 54.1189L53.1589 46.0612L54.9198 47.8221L46.862 55.8798C46.3814 56.3605 46.3814 57.1395 46.862 57.62C47.1022 57.8602 47.4172 57.9803 47.732 57.9803C48.0468 57.9803 48.3618 57.8602 48.602 57.62L56.66 49.5623L58.4208 51.3231L50.3629 59.3809C49.8824 59.8616 49.8824 60.6406 50.3629 61.1211C50.6031 61.3613 50.9181 61.4814 51.2329 61.4814C51.5478 61.4814 51.8628 61.3613 52.103 61.1211L60.1609 53.0632L61.9218 54.8241L53.864 62.8818C53.3835 63.3625 53.3835 64.1415 53.864 64.6221C54.1042 64.8622 54.4192 64.9823 54.734 64.9823C55.0489 64.9823 55.3639 64.8622 55.6041 64.6221L63.6618 56.5643L65.4227 58.3252L57.3649 66.3829C56.8844 66.8636 56.8844 67.6426 57.3649 68.1231C57.6051 68.3633 57.9201 68.4834 58.235 68.4834C58.5498 68.4834 58.8648 68.3633 59.105 68.1231L67.1628 60.0654L68.9236 61.8263L60.8659 69.884C60.3853 70.3647 60.3853 71.1437 60.8659 71.6242C61.1061 71.8644 61.4211 71.9845 61.7359 71.9845C62.0507 71.9845 62.3657 71.8644 62.6059 71.6242L70.6637 63.5665L72.4246 65.3274L64.3668 73.3851C63.8863 73.8658 63.8863 74.6448 64.3668 75.1253C64.607 75.3655 64.922 75.4856 65.2368 75.4856C65.5517 75.4856 65.8667 75.3655 66.1068 75.1253L74.1646 67.0676L75.9257 68.8286L67.8679 76.8864C67.3874 77.3671 67.3874 78.1461 67.8679 78.6266C68.1081 78.8668 68.4231 78.9869 68.7379 78.9869C69.0528 78.9869 69.3678 78.8668 69.6079 78.6266L77.6659 70.5687L79.4888 72.3916C75.7106 75.6818 71.9519 78.9916 68.2356 82.3055C68.2339 82.3055 68.2339 82.3055 68.2339 82.3073C67.1299 83.2892 65.9257 84.4203 64.7377 85.4916C64.01 86.0181 64.1486 86.9436 64.5097 87.3047C64.5097 87.3047 64.5097 87.3063 64.5113 87.3063C65.6959 88.7402 66.3505 90.5712 66.3505 92.4643C66.3505 94.6775 65.499 96.748 63.9521 98.2934C63.9365 98.309 60.257 101.989 60.241 102.005C54.8901 107.48 45.4668 103.744 45.4614 95.9887C45.4647 91.2806 49.2671 87.392 54.0712 87.3885C56.6879 87.3902 59.1307 88.555 60.773 90.5812C61.2184 91.1301 62.0363 91.1895 62.5547 90.719C62.5613 90.7141 62.5662 90.7091 62.5728 90.7026L62.5843 90.6926C63.1606 90.1745 63.1199 89.2408 62.476 88.7796C60.3727 86.3318 57.3129 84.9276 54.0794 84.9276H54.063C47.911 84.9276 42.9934 89.9372 43.0006 95.9887C42.9952 100.549 45.7818 104.576 49.9042 106.251C52.352 107.242 55.0334 107.31 57.4557 106.534C55.147 113.716 60.5202 121 67.9883 121H68.0014C74.1039 121 79.0773 116.06 79.0706 109.932C79.0739 107.02 77.9517 104.272 75.9157 102.192C75.9168 102.19 78.4281 99.3355 78.4281 99.3355C82.8611 94.4027 87.246 89.4473 91.5777 84.48L93.4316 86.3339L85.3739 94.3917C84.8933 94.8724 84.8933 95.6514 85.3739 96.1319C85.6142 96.3721 85.9292 96.4922 86.244 96.4922C86.5589 96.4922 86.8739 96.3721 87.1142 96.1319L95.172 88.0741L96.9329 89.835L88.8751 97.8928C88.3946 98.3735 88.3946 99.1525 88.8751 99.633C89.1155 99.8732 89.4305 99.9933 89.7453 99.9933C90.0601 99.9933 90.3751 99.8732 90.6155 99.633L98.6733 91.5752L100.434 93.3359L92.3762 101.394C91.8957 101.874 91.8957 102.653 92.3762 103.134C92.6166 103.374 92.9316 103.494 93.2464 103.494C93.5612 103.494 93.8762 103.374 94.1166 103.134L102.174 95.0762L103.935 96.8369L95.8773 104.895C95.3968 105.376 95.3968 106.154 95.8773 106.635C96.1177 106.875 96.4327 106.995 96.7475 106.995C97.0623 106.995 97.3773 106.875 97.6177 106.635L105.675 98.5771L107.436 100.338L99.3786 108.396C98.898 108.876 98.898 109.655 99.3786 110.136C99.6189 110.376 99.9339 110.496 100.249 110.496C100.564 110.496 100.879 110.376 101.119 110.136L109.177 102.078L110.937 103.839L102.88 111.897C102.399 112.377 102.399 113.156 102.88 113.637C103.12 113.877 103.435 113.997 103.75 113.997C104.065 113.997 104.38 113.877 104.62 113.637L112.678 105.579L114.439 107.34L106.381 115.398C105.9 115.878 105.9 116.657 106.381 117.138C106.621 117.378 106.936 117.498 107.251 117.498C107.566 117.498 107.881 117.378 108.121 117.138L116.179 109.08L117.94 110.841L109.882 118.899C109.401 119.379 109.401 120.158 109.882 120.639C110.122 120.879 110.437 120.999 110.752 120.999C111.067 120.999 111.382 120.879 111.622 120.639L120.549 111.712C120.549 111.712 120.55 111.711 120.55 111.711C120.551 111.71 120.551 111.71 120.551 111.709L123.16 109.101C124.322 107.938 124.962 106.394 124.962 104.75C124.962 103.107 124.322 101.562 123.16 100.4L98.8395 76.0805C108.274 65.0749 117.42 54.0359 126.183 43.0687C127.372 41.5805 127.252 39.4421 125.904 38.0945ZM54.8991 44.321L56.6391 42.5809C58.0783 41.1418 60.4203 41.1418 61.8596 42.5809L86.0208 66.7422C84.462 68.0813 82.9046 69.424 81.3502 70.7724L54.8991 44.321ZM121.42 102.141C122.117 102.838 122.501 103.765 122.501 104.751C122.501 105.737 122.117 106.664 121.42 107.361L119.68 109.101C118.867 108.288 94.9431 84.3648 93.1973 82.6192C94.5476 81.0651 95.8932 79.5099 97.2323 77.9538L121.42 102.141ZM77.2823 96.9261C76.6859 96.4695 75.0958 95.6791 74.8314 93.4341C74.7575 92.8141 74.2342 92.348 73.6124 92.348C72.869 92.348 72.3025 92.9935 72.3868 93.723C72.3885 93.723 72.3885 93.723 72.3885 93.723C72.6231 95.7293 73.7125 97.503 75.3761 98.5873C75.463 98.6448 75.55 98.7037 75.6402 98.7694C74.7867 99.7431 74.0823 100.563 73.2744 101.455C73.0496 101.704 72.9348 102.041 72.9611 102.375C72.9857 102.71 73.1514 103.025 73.4122 103.237C75.4773 104.922 76.6078 107.349 76.6098 109.932C76.6064 114.674 72.7862 118.536 67.9967 118.539C63.2628 118.533 59.3836 114.717 59.3836 109.932C59.3891 106.038 61.8522 103.952 62.0414 103.685L65.6918 100.034C67.7029 98.0232 68.8121 95.3024 68.8121 92.4643C68.8137 90.3905 68.2198 88.3873 67.0978 86.6747C68.0612 85.7937 68.899 85.0119 69.8721 84.1447L69.877 84.1381C96.5559 60.3504 122.151 39.9021 122.632 39.6266C122.302 39.9566 74.2932 87.9445 74.0718 88.1941C73.6206 88.7027 73.6682 89.482 74.1751 89.9315C74.6847 90.3853 75.4651 90.3321 75.9125 89.8281C76.0597 89.6605 124.02 41.7173 124.372 41.3657C124.271 41.5427 104.455 66.6426 77.2823 96.9261Z" fill="white"/>
<path d="M58.4261 91.6453C54.5449 87.7642 47.9225 90.5608 47.9229 95.9947C47.9229 97.6372 48.5632 99.1818 49.7259 100.344C50.9254 101.544 52.5004 102.143 54.076 102.143C55.6512 102.143 57.2268 101.543 58.4261 100.344C60.8275 97.9435 60.8278 94.0463 58.4261 91.6453ZM56.6862 98.604C55.2469 100.043 52.9051 100.043 51.4658 98.604C49.1607 96.2991 50.7748 92.3061 54.076 92.3061C57.3868 92.3063 58.9808 96.3097 56.6862 98.604Z" fill="white"/>
<path d="M67.9968 103.782C65.4668 103.782 63.2934 105.234 62.3248 107.573C61.3514 109.923 61.8581 112.494 63.6468 114.282C64.835 115.47 66.3655 116.093 67.9461 116.093C68.7446 116.093 69.556 115.934 70.3419 115.608C72.6901 114.635 74.149 112.461 74.149 109.933C74.1488 106.541 71.3891 103.782 67.9968 103.782ZM69.3999 113.335C68.299 113.791 66.6667 113.822 65.3866 112.542C64.1057 111.262 64.1397 109.622 64.5982 108.515C65.0532 107.416 66.1849 106.243 67.9966 106.243C70.032 106.243 71.6879 107.898 71.6879 109.933C71.6879 111.742 70.506 112.877 69.3999 113.335Z" fill="white"/>
</g>
<defs>
<clipPath id="clip0">
<rect width="84" height="84" fill="white" transform="translate(43 37)"/>
</clipPath>
</defs>
</svg>
