<svg width="155" height="145" viewBox="0 0 155 145" fill="none" xmlns="http://www.w3.org/2000/svg">
<rect width="155" height="145" rx="5" fill="#37245C"/>
<path d="M112.116 56.0739L103.357 68.8989L42.0864 58.902L54.1523 46.053L112.116 56.0739Z" fill="#E7E0F4" stroke="#37245C"/>
<path d="M111.848 57.5401L112.219 89.2109L101.578 107.374L103.057 69.8983L111.848 57.5401Z" fill="#E2DBEE" stroke="#37245C"/>
<mask id="path-4-inside-1" fill="white">
<path fill-rule="evenodd" clip-rule="evenodd" d="M40.6885 59.2442L41.0792 96.1187L100.465 109.456C101.896 108.933 103.2 69.8358 103.2 69.8358"/>
</mask>
<path fill-rule="evenodd" clip-rule="evenodd" d="M40.6885 59.2442L41.0792 96.1187L100.465 109.456C101.896 108.933 103.2 69.8358 103.2 69.8358" fill="#F9F9F9"/>
<path d="M41.0792 96.1187L40.0792 96.1293L40.0876 96.9209L40.86 97.0944L41.0792 96.1187ZM100.465 109.456L100.246 110.432L100.533 110.496L100.809 110.395L100.465 109.456ZM39.6885 59.2548L40.0792 96.1293L42.0791 96.1081L41.6884 59.2336L39.6885 59.2548ZM40.86 97.0944L100.246 110.432L100.684 108.481L41.2983 95.143L40.86 97.0944ZM100.809 110.395C101.058 110.304 101.216 110.145 101.3 110.044C101.389 109.937 101.452 109.828 101.494 109.742C101.579 109.571 101.644 109.377 101.695 109.194C101.799 108.821 101.894 108.328 101.982 107.756C102.159 106.603 102.33 105.006 102.492 103.131C102.817 99.3742 103.115 94.4239 103.368 89.5012C103.62 84.5759 103.828 79.6681 103.973 75.9923C104.046 74.1542 104.102 72.6238 104.141 71.5527C104.16 71.0172 104.175 70.5965 104.185 70.3096C104.189 70.1661 104.193 70.0561 104.196 69.9819C104.197 69.9448 104.198 69.9167 104.199 69.8978C104.199 69.8884 104.199 69.8812 104.199 69.8764C104.199 69.874 104.199 69.8722 104.199 69.871C104.2 69.8704 104.2 69.87 104.2 69.8697C104.2 69.8693 104.2 69.8692 103.2 69.8358C102.201 69.8025 102.201 69.8026 102.201 69.8029C102.201 69.8032 102.201 69.8036 102.201 69.8042C102.201 69.8054 102.201 69.8071 102.2 69.8095C102.2 69.8141 102.2 69.8212 102.2 69.8305C102.199 69.8492 102.198 69.8772 102.197 69.9141C102.194 69.9879 102.191 70.0975 102.186 70.2405C102.176 70.5265 102.161 70.9463 102.142 71.4809C102.103 72.55 102.047 74.0782 101.975 75.9136C101.83 79.5849 101.623 84.4842 101.37 89.3987C101.118 94.3158 100.822 99.2378 100.5 102.959C100.338 104.822 100.172 106.366 100.005 107.451C99.9207 107.999 99.8405 108.399 99.7686 108.656C99.7513 108.718 99.7361 108.765 99.7236 108.8C99.7106 108.837 99.7033 108.852 99.7035 108.851C99.7039 108.85 99.708 108.842 99.7165 108.829C99.7247 108.815 99.7402 108.792 99.7643 108.763C99.804 108.716 99.9176 108.592 100.122 108.517L100.809 110.395Z" fill="#37245C" mask="url(#path-4-inside-1)"/>
<path fill-rule="evenodd" clip-rule="evenodd" d="M62.1802 84.8411C62.926 85.1302 62.724 85.9742 63.3389 86.4574C64.0782 87.0385 65.2007 86.9003 66.8152 86.9962C68.2469 87.1103 69.6663 87.2902 71.0639 87.535C71.6765 87.6392 72.6819 87.8294 73.5746 87.4811C74.2605 87.2136 74.597 86.5094 75.3127 86.4574C75.8654 86.417 76.2853 86.8505 76.8577 86.9962C77.3876 87.1309 78.164 87.0231 78.4027 87.2656C78.7681 87.6379 78.1022 88.5214 77.203 89.0435C75.59 89.9799 73.288 89.704 71.0639 89.4206C68.6279 89.11 66.4401 88.7202 64.0056 88.4509C61.3671 88.1597 59.444 88.1203 58.6031 87.1039C57.8785 86.2279 58.1647 84.8797 58.9894 84.6256C59.4436 84.4856 60.0087 84.8086 60.6356 84.8411C61.1276 84.8681 61.7314 84.6671 62.1802 84.8411Z" fill="#D0CDD7"/>
<rect width="51.3152" height="10.6108" rx="2" transform="matrix(0.986923 0.161194 -0.159836 0.987144 47.2056 64.4278)" fill="#37245C"/>
<path d="M63.0371 74.3626C63.0801 74.0902 63.0184 73.86 62.8519 73.672C62.6859 73.4818 62.3597 73.2753 61.8735 73.0526C61.3877 72.8276 61.041 72.6121 60.8336 72.406C60.5382 72.1144 60.4211 71.7751 60.4821 71.3879C60.5414 71.012 60.7437 70.7316 61.0889 70.5466C61.4367 70.3597 61.8514 70.3045 62.333 70.3811C62.6593 70.4331 62.9408 70.5425 63.1774 70.7093C63.4163 70.8766 63.5889 71.084 63.6952 71.3316C63.8015 71.5793 63.8327 71.8415 63.7891 72.1184L63.3705 72.0518C63.4234 71.7164 63.3511 71.4292 63.1535 71.1901C62.9563 70.9487 62.6641 70.7972 62.2771 70.7356C61.9013 70.6758 61.5887 70.7126 61.3393 70.846C61.0902 70.9771 60.9444 71.1777 60.9018 71.4478C60.8623 71.6976 60.9304 71.9173 61.1058 72.1067C61.2812 72.2961 61.5799 72.4867 62.0017 72.6784C62.424 72.8679 62.7385 73.046 62.9451 73.2127C63.1522 73.3772 63.2989 73.5586 63.3853 73.7569C63.4716 73.9552 63.4954 74.1771 63.4567 74.4224C63.3957 74.8095 63.1914 75.0954 62.8439 75.2801C62.4987 75.4651 62.0729 75.5174 61.5666 75.4368C61.22 75.3816 60.9114 75.2691 60.6406 75.0991C60.3721 74.9295 60.18 74.7212 60.0644 74.4744C59.9511 74.2279 59.9171 73.9607 59.9625 73.6726L60.3777 73.7386C60.3231 74.0853 60.4093 74.3793 60.6365 74.6208C60.8637 74.8623 61.1922 75.0173 61.622 75.0857C62.0045 75.1465 62.325 75.111 62.5834 74.9791C62.8419 74.8472 62.9931 74.6417 63.0371 74.3626ZM65.42 71.2773L65.2725 72.2125L66.0286 72.3328L65.9764 72.6637L65.2203 72.5434L64.8363 74.9776C64.8043 75.1802 64.8165 75.3368 64.8729 75.4472C64.9316 75.5581 65.0464 75.6271 65.2174 75.6544C65.2849 75.6651 65.3959 75.6712 65.5502 75.6727L65.5149 76.0062C65.4031 76.0277 65.256 76.0239 65.0737 75.9949C64.797 75.9508 64.6082 75.8389 64.5073 75.659C64.4069 75.4769 64.3813 75.2294 64.4307 74.9166L64.8152 72.4789L64.1435 72.372L64.1957 72.0412L64.8674 72.1481L65.015 71.2129L65.42 71.2773ZM67.6931 76.4117C67.3826 76.3623 67.1134 76.241 66.8855 76.0478C66.6598 75.855 66.4987 75.6114 66.4022 75.3168C66.306 75.02 66.2847 74.7017 66.3383 74.3618L66.3612 74.2166C66.4166 73.8655 66.534 73.56 66.7134 73.3001C66.8951 73.0406 67.12 72.8503 67.3882 72.7292C67.6568 72.6058 67.9329 72.5667 68.2165 72.6118C68.6598 72.6823 68.9869 72.8901 69.1977 73.2352C69.4112 73.5783 69.4765 74.0121 69.3938 74.5365L69.3581 74.7627L66.7522 74.3481L66.74 74.4257C66.6746 74.8399 66.7383 75.2042 66.9309 75.5186C67.1261 75.8312 67.4037 76.0161 67.7638 76.0734C67.9798 76.1078 68.1762 76.0986 68.3529 76.046C68.5319 75.9937 68.7025 75.8917 68.8649 75.7399L69.0877 75.9726C68.7228 76.3552 68.258 76.5016 67.6931 76.4117ZM68.1621 72.9562C67.8583 72.9078 67.5842 72.9784 67.3398 73.1679C67.0976 73.3578 66.9244 73.6371 66.8201 74.0058L69.0108 74.3545L69.0177 74.3106C69.0618 73.9576 69.0068 73.6559 68.8525 73.4052C68.6983 73.1545 68.4682 73.0049 68.1621 72.9562ZM72.0704 73.6473C71.9874 73.6179 71.8975 73.5956 71.8007 73.5802C71.5487 73.5401 71.3237 73.5769 71.1258 73.6908C70.9306 73.8028 70.7747 73.9868 70.6581 74.2428L70.2624 76.7513L69.8607 76.6874L70.437 73.0344L70.8319 73.0972L70.7471 73.679C71.029 73.2809 71.4063 73.1194 71.8789 73.1946C71.9914 73.2125 72.078 73.2413 72.1386 73.2809L72.0704 73.6473ZM72.6421 77.13L72.2371 77.0656L72.8134 73.4125L73.2184 73.477L72.6421 77.13ZM72.9092 72.3445C72.9213 72.2679 72.9561 72.2077 73.0138 72.1638C73.0718 72.1177 73.1436 72.1014 73.2291 72.115C73.3146 72.1287 73.3779 72.1664 73.4189 72.2283C73.4625 72.2883 73.4782 72.3566 73.4661 72.4331C73.4541 72.5096 73.4181 72.5697 73.3581 72.6132C73.3005 72.6571 73.2289 72.6722 73.1434 72.6586C73.0579 72.645 72.9944 72.6084 72.9531 72.5487C72.9117 72.4891 72.8971 72.421 72.9092 72.3445ZM74.1949 77.3771L73.7898 77.3127L74.6079 72.1268L75.013 72.1913L74.1949 77.3771ZM75.7476 77.6242L75.3425 77.5597L75.9188 73.9067L76.3239 73.9711L75.7476 77.6242ZM76.0146 72.8386C76.0267 72.7621 76.0616 72.7019 76.1193 72.658C76.1773 72.6119 76.2491 72.5956 76.3346 72.6092C76.4201 72.6228 76.4833 72.6606 76.5243 72.7225C76.5679 72.7825 76.5837 72.8507 76.5716 72.9273C76.5595 73.0038 76.5235 73.0638 76.4636 73.1074C76.4059 73.1513 76.3343 73.1664 76.2488 73.1528C76.1633 73.1392 76.0999 73.1026 76.0585 73.0429C76.0172 72.9833 76.0026 72.9152 76.0146 72.8386ZM77.1685 77.5008L79.5414 77.8784L79.4876 78.2194L76.6151 77.7623L76.662 77.4651L79.3509 74.8093L77.204 74.4677L77.2589 74.1199L79.9154 74.5427L79.868 74.8431L77.1685 77.5008ZM81.5597 78.6183C81.2491 78.5689 80.9799 78.4476 80.752 78.2544C80.5264 78.0616 80.3653 77.818 80.2687 77.5234C80.1725 77.2266 80.1512 76.9083 80.2048 76.5684L80.2277 76.4232C80.2831 76.0721 80.4005 75.7666 80.5799 75.5067C80.7616 75.2472 80.9865 75.0569 81.2548 74.9358C81.5234 74.8124 81.7995 74.7733 82.083 74.8184C82.5263 74.8889 82.8534 75.0967 83.0643 75.4418C83.2777 75.7849 83.3431 76.2187 83.2603 76.7431L83.2247 76.9693L80.6188 76.5547L80.6065 76.6323C80.5412 77.0465 80.6048 77.4108 80.7974 77.7252C80.9927 78.0378 81.2703 78.2227 81.6303 78.28C81.8464 78.3144 82.0427 78.3052 82.2194 78.2526C82.3984 78.2003 82.5691 78.0983 82.7314 77.9464L82.9542 78.1792C82.5894 78.5618 82.1245 78.7082 81.5597 78.6183ZM82.0287 75.1627C81.7249 75.1144 81.4508 75.185 81.2063 75.3745C80.9642 75.5644 80.7909 75.8437 80.6866 76.2124L82.8773 76.561L82.8842 76.5172C82.9284 76.1642 82.8733 75.8625 82.7191 75.6118C82.5649 75.3611 82.3347 75.2115 82.0287 75.1627ZM85.937 75.8539C85.854 75.8245 85.7641 75.8022 85.6673 75.7868C85.4153 75.7467 85.1903 75.7835 84.9924 75.8974C84.7971 76.0094 84.6412 76.1934 84.5247 76.4494L84.129 78.9579L83.7273 78.894L84.3036 75.241L84.6985 75.3038L84.6136 75.8856C84.8956 75.4874 85.2729 75.326 85.7454 75.4012C85.8579 75.4191 85.9445 75.4479 86.0052 75.4875L85.937 75.8539Z" fill="white"/>
</svg>
