<svg width="20" height="22" viewBox="0 0 20 22" fill="none" xmlns="http://www.w3.org/2000/svg">
<path d="M15.2091 15.1691L13.2265 14.5084L12.5148 13.0849C13.156 12.4322 13.6012 11.5687 13.7513 10.668L13.8401 10.136H14.5992C15.2892 10.136 15.8505 9.57465 15.8505 8.88465V6.25679C15.8505 2.8068 13.0437 0 9.59375 0C6.13491 0 3.33696 2.79875 3.33696 6.25679V8.88465C3.33696 9.4284 3.68571 9.89207 4.1712 10.0643V10.5531C4.1712 11.2431 4.73255 11.8045 5.42255 11.8045H5.78887C5.96969 12.1973 6.20374 12.5611 6.48854 12.8879C6.54761 12.9558 6.60922 13.0216 6.67233 13.0857L5.96097 14.5084L3.97836 15.1691C1.67315 15.9378 0 18.3646 0 20.9394C0 21.1698 0.186744 21.3565 0.41712 21.3565H18.7704C19.0007 21.3565 19.1875 21.1698 19.1875 20.9394C19.1875 18.3646 17.5144 15.9378 15.2091 15.1691ZM15.0163 8.88465C15.0163 9.11465 14.8292 9.30177 14.5992 9.30177H13.9626C14.0686 8.48046 14.1393 7.60647 14.1677 6.74566C14.1685 6.72138 14.1692 6.69777 14.1699 6.67391H15.0163V8.88465ZM4.58832 9.30177C4.35832 9.30177 4.1712 9.11465 4.1712 8.88465V6.67391H5.01787C5.01924 6.71742 5.0207 6.76113 5.02233 6.80514C5.02237 6.80664 5.02245 6.8081 5.02249 6.8096C5.02249 6.80973 5.02249 6.80985 5.02249 6.80998C5.05169 7.64722 5.12144 8.49852 5.22505 9.30172H4.58832V9.30177ZM5.42255 10.9702C5.19255 10.9702 5.00543 10.7831 5.00543 10.5531V10.136H5.34739L5.43615 10.6682C5.45309 10.7694 5.4739 10.8701 5.49797 10.9702H5.42255ZM5.00614 5.83967H4.18705C4.39832 3.0441 6.73135 0.834239 9.59375 0.834239C12.4434 0.834239 14.7867 3.0438 15.0004 5.83967H14.1814C14.1514 3.53605 12.2755 1.66848 9.96711 1.66848H9.22047C6.91217 1.66848 5.03613 3.53605 5.00614 5.83967ZM9.22043 2.50272H9.96707C11.8361 2.50272 13.3489 4.0315 13.3478 5.89849C13.3478 6.02976 13.3468 6.14405 13.3446 6.24803C13.3446 6.24937 13.3445 6.25075 13.3445 6.25212L12.8228 6.17758C11.4054 5.9752 10.0671 5.30605 9.05446 4.29337C8.9762 4.21516 8.87013 4.1712 8.75951 4.1712C7.63929 4.1712 6.56696 4.68158 5.85811 5.54385C6.0328 3.84538 7.46865 2.50272 9.22043 2.50272ZM6.36274 10.9702C6.15393 10.2756 5.91501 8.23173 5.8622 6.92197L6.4236 6.17341C6.9392 5.48617 7.74136 5.05916 8.59467 5.01015C9.71743 6.07864 11.1699 6.78424 12.7048 7.0034L13.3189 7.09116C13.2779 7.96231 13.194 8.83651 13.0738 9.64051C13.0738 9.64076 13.0737 9.64105 13.0737 9.64134C13.0355 9.89983 13.0054 10.0662 12.9285 10.5308C12.7075 11.8558 11.7189 13.054 10.4138 13.3803C9.87664 13.5144 9.31078 13.5143 8.77394 13.3803C7.95902 13.1766 7.21179 12.6127 6.72956 11.8045H7.5799C7.75208 12.29 8.21571 12.6387 8.75951 12.6387H9.59375C10.2851 12.6387 10.8451 12.0788 10.8451 11.3874C10.8451 10.6974 10.2837 10.136 9.59375 10.136H8.75951C8.20362 10.136 7.74683 10.4951 7.57919 10.9702H6.36274ZM8.72443 14.2244C9.01053 14.2847 9.30223 14.3155 9.59375 14.3155C9.82196 14.3155 10.0502 14.2964 10.2759 14.2594L9.53882 15.0389L8.72443 14.2244ZM8.96536 15.6453L7.64234 17.0444C7.27811 16.3472 6.96515 15.6216 6.70845 14.8788L7.20528 13.8852L8.96536 15.6453ZM11.9115 13.7438L12.479 14.8788C12.2219 15.6228 11.9088 16.3487 11.545 17.045L10.1289 15.629L11.9115 13.7438ZM8.34239 11.3874C8.34239 11.1571 8.52918 10.9702 8.75951 10.9702H9.59375C9.82375 10.9702 10.0109 11.1574 10.0109 11.3874C10.0109 11.6177 9.82404 11.8045 9.59375 11.8045H8.75951C8.52951 11.8045 8.34239 11.6174 8.34239 11.3874ZM0.850924 20.5223C1.01623 18.4559 2.39143 16.5777 4.24219 15.9605L5.99801 15.3754C6.3197 16.2649 6.71821 17.1295 7.18526 17.9507C7.18605 17.9521 7.1868 17.9535 7.1876 17.9549C7.1876 17.955 7.18764 17.955 7.18764 17.955C7.52888 18.5552 7.91297 19.1417 8.32938 19.6985L8.84252 20.5223H0.850924ZM9.59375 20.1505L9.02805 19.2423C9.02171 19.2321 9.01495 19.2222 9.00778 19.2126C8.67 18.762 8.35491 18.2908 8.06793 17.8085L9.5555 16.2354L11.123 17.8028C10.8341 18.2886 10.5179 18.7618 10.1798 19.2125C10.1594 19.2398 10.1884 19.1968 9.59375 20.1505ZM10.345 20.5223L10.8581 19.6986C11.2763 19.1396 11.6632 18.5484 12.0078 17.9411C12.0099 17.9375 12.0119 17.9337 12.014 17.9301C12.0142 17.9296 12.0145 17.9292 12.0147 17.9287C12.4758 17.1153 12.8702 16.2583 13.1895 15.3754L14.9453 15.9605C16.7961 16.5777 18.1713 18.4559 18.3366 20.5223H10.345Z" fill="white"/>
</svg>
